<svg width="32" height="32" viewBox="0 0 32 32" fill="none" xmlns="http://www.w3.org/2000/svg">
<rect width="32" height="32" rx="16" fill="#FA8CDA"/>
<path d="M22.0952 8H9.90476C8.85333 8 8 8.85333 8 9.90476V22.0952C8 23.1467 8.85333 24 9.90476 24H22.0952C23.1467 24 24 23.1467 24 22.0952V9.90476C24 8.85333 23.1467 8 22.0952 8ZM12.9524 14.0952V21.3333H10.6667V14.0952H12.9524ZM10.6667 11.9886C10.6667 11.4552 11.1238 11.0476 11.8095 11.0476C12.4952 11.0476 12.9257 11.4552 12.9524 11.9886C12.9524 12.5219 12.5257 12.9524 11.8095 12.9524C11.1238 12.9524 10.6667 12.5219 10.6667 11.9886ZM21.3333 21.3333H19.0476C19.0476 21.3333 19.0476 17.8057 19.0476 17.5238C19.0476 16.7619 18.6667 16 17.7143 15.9848H17.6838C16.7619 15.9848 16.381 16.7695 16.381 17.5238C16.381 17.8705 16.381 21.3333 16.381 21.3333H14.0952V14.0952H16.381V15.0705C16.381 15.0705 17.1162 14.0952 18.5943 14.0952C20.1067 14.0952 21.3333 15.1352 21.3333 17.2419V21.3333Z" fill="black"/>
</svg>
