<svg width="33" height="33" viewBox="0 0 33 33" fill="none" xmlns="http://www.w3.org/2000/svg">
<path d="M28.5019 0.139648H4.12093C2.01807 0.139648 0.311401 1.84632 0.311401 3.94917V28.3301C0.311401 30.433 2.01807 32.1396 4.12093 32.1396H28.5019C30.6047 32.1396 32.3114 30.433 32.3114 28.3301V3.94917C32.3114 1.84632 30.6047 0.139648 28.5019 0.139648ZM10.2162 12.3301V26.8063H5.64473V12.3301H10.2162ZM5.64473 8.11679C5.64473 7.05013 6.55902 6.23489 7.93045 6.23489C9.30188 6.23489 10.1628 7.05013 10.2162 8.11679C10.2162 9.18346 9.36283 10.0444 7.93045 10.0444C6.55902 10.0444 5.64473 9.18346 5.64473 8.11679ZM26.9781 26.8063H22.4066C22.4066 26.8063 22.4066 19.7511 22.4066 19.1873C22.4066 17.6635 21.6447 16.1396 19.74 16.1092H19.679C17.8352 16.1092 17.0733 17.6787 17.0733 19.1873C17.0733 19.8806 17.0733 26.8063 17.0733 26.8063H12.5019V12.3301H17.0733V14.2806C17.0733 14.2806 18.5438 12.3301 21.5 12.3301C24.5247 12.3301 26.9781 14.4101 26.9781 18.6235V26.8063Z" fill="#FA8CDA"/>
</svg>
