<svg width="23" height="33" viewBox="0 0 23 33" fill="none" xmlns="http://www.w3.org/2000/svg">
<path d="M2.29311 4.80498C1.6358 5.58254 1.12277 6.48835 0.810149 7.48234C2.58971 7.08154 4.95444 6.98535 6.29311 6.88114C6.70995 5.16571 7.89632 3.85909 9.8843 3.94727C10.742 3.98735 11.4955 4.54045 12.0166 5.39015C12.4013 4.98134 12.9144 4.70879 13.5957 4.6126C13.6438 4.6126 13.748 4.60458 13.8282 4.60458C12.4174 3.0655 10.4053 2.08755 8.15283 2.08755C7.74402 2.08755 7.34321 2.12763 6.94241 2.19175C6.86225 2.19175 6.75804 2.20779 6.62177 2.23985C6.61375 2.23985 6.59772 2.23985 6.58971 2.23985C6.58169 2.23985 6.57367 2.23985 6.55764 2.23985C5.00253 2.6166 3.83219 2.31199 3.16686 1.40618C3.09472 1.30999 2.81416 0.88514 2.72598 0.139648C2.237 0.644659 1.91636 1.47833 2.18891 2.36811C2.40534 3.07352 2.81416 3.45027 3.25504 3.66671C2.58169 3.70679 2.02057 3.57853 1.45945 3.15368C1.13079 2.90518 0.922373 2.63264 0.577684 1.91921C0.257042 2.42422 0.289107 2.98534 0.353235 3.27392C0.433395 3.65869 0.633796 4.09156 0.890309 4.34005C1.28309 4.72482 1.84422 4.813 2.30113 4.80498H2.29311Z" fill="#FA8CDA"/>
<path d="M9.89238 11.4342C10.8885 11.4342 11.696 10.0525 11.696 8.34805C11.696 6.6436 10.8885 5.26187 9.89238 5.26187C8.89627 5.26187 8.08877 6.6436 8.08877 8.34805C8.08877 10.0525 8.89627 11.4342 9.89238 11.4342Z" fill="#FA8CDA"/>
<path d="M13.8602 10.6888C14.6394 10.6888 15.271 9.59057 15.271 8.23586C15.271 6.88116 14.6394 5.78296 13.8602 5.78296C13.081 5.78296 12.4494 6.88116 12.4494 8.23586C12.4494 9.59057 13.081 10.6888 13.8602 10.6888Z" fill="#FA8CDA"/>
<path d="M6.87825 27.1777C6.87825 27.1777 6.73396 23.3942 8.16082 20.5725C8.66583 19.5865 9.81212 18.2238 10.6698 17.4863C11.1268 17.0855 11.5837 16.7489 12.0326 16.4362C12.265 16.3 12.4815 16.1557 12.6899 16.0034C16.4815 13.6787 19.8241 14.1918 22.5897 14.5926C22.5897 14.5926 23.247 12.6366 20.5376 11.6266C19.0626 11.0815 17.3231 10.6407 15.8722 10.336C15.6638 10.7128 15.3993 11.0334 15.0867 11.2739C14.8622 11.4423 14.3091 11.8751 13.2911 11.7549C12.7781 11.6908 12.3853 11.4823 12.0726 11.1777C11.5436 12.0515 10.7821 12.6206 9.9003 12.7008C7.45541 12.9092 6.22094 10.8571 6.14078 8.58855C4.30511 8.7649 1.8041 9.89516 0.473442 10.5525V30.2158C2.43737 31.2258 4.59368 31.8911 6.88627 32.1396V27.1777H6.87825Z" fill="#FA8CDA"/>
</svg>
