<?xml version="1.0" encoding="UTF-8"?>
<!DOCTYPE svg PUBLIC "-//W3C//DTD SVG 1.1//EN" "http://www.w3.org/Graphics/SVG/1.1/DTD/svg11.dtd">
<!-- Creator: CorelDRAW X7 -->
<svg xmlns="http://www.w3.org/2000/svg" xml:space="preserve" width="134.885mm" height="153.866mm" version="1.1" style="shape-rendering:geometricPrecision; text-rendering:geometricPrecision; image-rendering:optimizeQuality; fill-rule:evenodd; clip-rule:evenodd"
viewBox="0 0 14482 16520"
 xmlns:xlink="http://www.w3.org/1999/xlink">
 <defs>
  <style type="text/css">
   <![CDATA[
    .fil0 {fill:#FA8CDA;fill-rule:nonzero}
   ]]>
  </style>
 </defs>
 <g id="Layer_x0020_1">
  <metadata id="CorelCorpID_0Corel-Layer"/>
  <path class="fil0" d="M13423 3416l977 0c-36,-132 -85,-256 -150,-367 -253,-435 -725,-763 -1132,-1069 -153,-115 -376,-381 -346,-503 36,-141 234,-121 378,-157 273,-68 550,-50 817,-95 113,-18 259,25 352,-36 149,-100 100,-171 109,-208l-788 -28 0 0 792 -76c23,-261 -511,-279 -716,-340 -366,-110 -808,-536 -1213,-537l-10 0c-159,2 -311,71 -452,249 -139,178 -191,380 -225,599 -105,672 192,1264 685,1710 329,297 698,534 922,858zm296 2457c153,-211 284,-435 468,-623 -29,-148 174,-349 220,-534 89,-353 113,-866 -7,-1300l-977 0c152,220 238,482 197,831 -59,509 -556,979 -1068,1011 -250,15 -492,-92 -741,-60 -138,17 -283,97 -422,71 -209,-40 -420,-221 -598,-332 -276,-171 -573,-317 -880,-424 -741,-258 -1672,-187 -2421,-17 -1070,243 -1952,939 -2987,1261 -525,162 -1067,34 -1586,116 -33,5 -66,11 -99,18 -225,48 -122,261 -45,397 -653,-163 -1197,-300 -1821,128 -400,275 -679,618 -865,1067 -45,110 -167,443 -8,515 182,82 507,-179 682,-232 -54,170 -123,355 -149,540l827 0c43,-30 89,-53 140,-69 -12,20 -24,43 -35,69l10570 0c61,-150 102,-310 118,-477 23,-230 -71,-577 38,-785 172,-326 810,-554 1100,-789 140,-113 249,-245 349,-382zm-7996 5001c185,-128 377,-247 539,-362 172,-122 347,-314 568,-325l0 -63 534 -126 0 94 -63 0 32 63c-154,56 -175,242 -235,379 -39,89 -90,209 -131,340l0 0c-108,346 -152,764 241,871 323,89 566,-186 848,-278 584,-191 1171,-387 1761,-559 34,-10 69,-22 104,-34l0 0c187,-62 388,-143 578,-153 121,-7 175,61 211,153l0 0c62,160 71,393 270,444 228,59 161,-249 189,-377 182,197 373,428 629,528 82,33 247,73 295,-34 57,-131 -69,-357 -211,-561l0 0 0 0c-107,-153 -222,-295 -273,-373 -153,-231 -278,-484 -557,-582 -302,-107 -613,50 -903,123 -786,201 -1581,467 -2345,742 201,-360 462,-474 753,-733 116,-104 165,-295 319,-350 196,-69 460,-10 667,-30 674,-67 1378,-150 1940,-568 282,-210 502,-482 631,-797l-10570 0c-92,204 -176,571 -30,730 130,141 586,-180 662,-296l63 32c226,-192 976,-382 1258,-299 263,78 499,302 754,414 534,234 1150,436 1730,514 -262,552 -877,1033 -1384,1352 -78,49 -158,84 -238,121l0 0c-101,48 -200,98 -287,181 -214,206 -185,494 -339,727 -340,516 -692,1040 -1057,1549 -181,254 -366,505 -553,749 -282,368 -829,228 -1084,666 -159,274 -18,431 257,346l-63 157 -283 440c-6,172 -176,813 152,831 160,8 267,-374 333,-485 285,-483 741,-845 1049,-1320 298,-462 620,-930 960,-1384 299,-399 612,-787 934,-1149 176,-197 462,-243 631,-460 101,-130 116,-300 220,-424 130,-155 308,-294 494,-424l0 0zm-4284 -2568l-827 0c-11,82 -13,165 -2,246 19,141 119,273 276,222 224,-73 354,-331 553,-468z"/>
 </g>
</svg>
