<svg width="32" height="32" viewBox="0 0 32 32" fill="none" xmlns="http://www.w3.org/2000/svg">
<rect width="32" height="32" rx="16" fill="#FA8CDA"/>
<path d="M9.72373 10.7802C9.27834 11.3071 8.93072 11.9208 8.71889 12.5943C9.92469 12.3228 11.527 12.2576 12.4341 12.187C12.7165 11.0246 13.5204 10.1393 14.8674 10.199C15.4486 10.2262 15.9591 10.601 16.3122 11.1767C16.5729 10.8997 16.9205 10.715 17.3822 10.6498C17.4148 10.6498 17.4854 10.6444 17.5397 10.6444C16.5838 9.60156 15.2204 8.93891 13.6942 8.93891C13.4172 8.93891 13.1456 8.96607 12.874 9.00952C12.8197 9.00952 12.7491 9.02039 12.6568 9.04211C12.6513 9.04211 12.6405 9.04211 12.635 9.04211C12.6296 9.04211 12.6242 9.04211 12.6133 9.04211C11.5596 9.29739 10.7666 9.091 10.3158 8.47723C10.2669 8.41205 10.0768 8.12418 10.017 7.61905C9.68571 7.96124 9.46845 8.52612 9.65312 9.12902C9.79977 9.60699 10.0768 9.86227 10.3755 10.0089C9.91926 10.0361 9.53906 9.94918 9.15885 9.66131C8.93616 9.49293 8.79494 9.30826 8.56138 8.82485C8.34412 9.16704 8.36584 9.54724 8.4093 9.74278C8.46361 10.0035 8.5994 10.2968 8.77321 10.4652C9.03935 10.7259 9.41956 10.7856 9.72916 10.7802H9.72373Z" fill="black"/>
<path d="M14.8729 15.2721C15.5478 15.2721 16.0949 14.3358 16.0949 13.1809C16.0949 12.026 15.5478 11.0898 14.8729 11.0898C14.1979 11.0898 13.6508 12.026 13.6508 13.1809C13.6508 14.3358 14.1979 15.2721 14.8729 15.2721Z" fill="black"/>
<path d="M17.5615 14.7669C18.0894 14.7669 18.5174 14.0228 18.5174 13.1049C18.5174 12.187 18.0894 11.4428 17.5615 11.4428C17.0335 11.4428 16.6055 12.187 16.6055 13.1049C16.6055 14.0228 17.0335 14.7669 17.5615 14.7669Z" fill="black"/>
<path d="M12.8677 23.6191C12.8677 23.6191 12.7329 23.3759 13.6997 21.464C14.0419 20.7959 14.8186 19.8726 15.3998 19.3729C15.7094 19.1013 16.019 18.8732 16.3231 18.6614C16.4807 18.569 16.6273 18.4713 16.7685 18.3681C19.3376 16.7929 21.6026 17.1405 23.4765 17.4121C23.4765 17.4121 23.9219 16.0868 22.086 15.4024C21.0866 15.0331 19.908 14.7344 18.9248 14.528C18.7836 14.7832 18.6044 15.0005 18.3926 15.1635C18.2405 15.2775 17.8657 15.5708 17.1759 15.4893C16.8283 15.4459 16.5621 15.3047 16.3503 15.0983C15.9918 15.6903 15.4758 16.0759 14.8784 16.1303C13.2217 16.2715 12.3853 14.881 12.331 13.3439C11.0871 13.4634 9.39251 14.2292 8.49088 14.6746L8.52244 22.3155C9.85317 22.9999 11.3142 23.4507 12.8677 23.6191Z" fill="black"/>
</svg>
