<svg width="23" height="32" viewBox="0 0 23 32" fill="none" xmlns="http://www.w3.org/2000/svg">
<path d="M1.98171 4.66533C1.3244 5.44289 0.811372 6.3487 0.498747 7.34269C2.27831 6.94189 4.64304 6.8457 5.98171 6.74149C6.39855 5.02606 7.58492 3.71944 9.57289 3.80762C10.4306 3.8477 11.1841 4.40081 11.7052 5.25051C12.0899 4.84169 12.603 4.56914 13.2843 4.47295C13.3324 4.47295 13.4366 4.46493 13.5168 4.46493C12.106 2.92585 10.0939 1.9479 7.84143 1.9479C7.43261 1.9479 7.03181 1.98798 6.63101 2.05211C6.55085 2.05211 6.44664 2.06814 6.31037 2.1002C6.30235 2.1002 6.28632 2.1002 6.27831 2.1002C6.27029 2.1002 6.26227 2.1002 6.24624 2.1002C4.69113 2.47696 3.52079 2.17235 2.85546 1.26653C2.78332 1.17034 2.50275 0.745492 2.41458 0C1.9256 0.50501 1.60496 1.33868 1.8775 2.22846C2.09394 2.93387 2.50275 3.31062 2.94364 3.52706C2.27029 3.56714 1.70917 3.43888 1.14805 3.01403C0.819388 2.76553 0.610972 2.49299 0.266282 1.77956C-0.0543589 2.28457 -0.0222948 2.84569 0.0418335 3.13427C0.121994 3.51904 0.322395 3.95191 0.578908 4.2004C0.971693 4.58517 1.53282 4.67335 1.98973 4.66533H1.98171Z" fill="#FA8CDA"/>
<path d="M9.58095 11.2946C10.5771 11.2946 11.3846 9.91284 11.3846 8.2084C11.3846 6.50395 10.5771 5.12222 9.58095 5.12222C8.58485 5.12222 7.77734 6.50395 7.77734 8.2084C7.77734 9.91284 8.58485 11.2946 9.58095 11.2946Z" fill="#FA8CDA"/>
<path d="M13.5485 10.5491C14.3277 10.5491 14.9593 9.45092 14.9593 8.09622C14.9593 6.74151 14.3277 5.64331 13.5485 5.64331C12.7693 5.64331 12.1377 6.74151 12.1377 8.09622C12.1377 9.45092 12.7693 10.5491 13.5485 10.5491Z" fill="#FA8CDA"/>
<path d="M6.56692 27.0381C6.56692 27.0381 6.42263 23.2545 7.84949 20.4329C8.3545 19.4469 9.50079 18.0842 10.3585 17.3467C10.8154 16.9459 11.2723 16.6092 11.7212 16.2966C11.9537 16.1603 12.1701 16.016 12.3785 15.8637C16.1701 13.5391 19.5128 14.0521 22.2783 14.4529C22.2783 14.4529 22.9357 12.497 20.2262 11.487C18.7513 10.9419 17.0118 10.501 15.5609 10.1964C15.3525 10.5732 15.088 10.8938 14.7753 11.1343C14.5509 11.3026 13.9978 11.7355 12.9797 11.6152C12.4667 11.5511 12.0739 11.3427 11.7613 11.0381C11.2323 11.9118 10.4707 12.481 9.58896 12.5611C7.14407 12.7696 5.90961 10.7175 5.82945 8.44891C3.99377 8.62527 1.49277 9.75553 0.162109 10.4128V30.0762C2.12604 31.0862 4.28235 31.7515 6.57494 32V27.0381H6.56692Z" fill="#FA8CDA"/>
</svg>
