<svg width="95" height="52" viewBox="0 0 95 52" fill="none" xmlns="http://www.w3.org/2000/svg">
<path fill-rule="evenodd" clip-rule="evenodd" d="M53.0382 5.11767C53.1259 5.15924 53.2137 5.247 53.3014 5.37633L53.4354 5.51027C53.4354 5.42251 53.38 5.3209 53.2691 5.21467C53.1583 5.10381 53.0844 5.07148 53.0382 5.11767ZM23.0111 9.90279L22.8817 9.96745C22.6647 10.009 22.5954 10.0783 22.6831 10.1614C22.6831 10.1199 22.7386 10.0875 22.8494 10.0644C22.9556 10.0414 23.0111 9.99055 23.0111 9.90279ZM20.1936 11.2145C20.2351 11.2561 20.2906 11.2561 20.3552 11.2145C20.4245 11.1684 20.4569 11.1268 20.4569 11.0806C20.4107 11.039 20.3552 11.039 20.2906 11.0806C20.2259 11.1268 20.1936 11.1684 20.1936 11.2145ZM25.9625 11.8011C25.9625 11.8473 25.9209 11.9027 25.8332 11.9674C25.7454 12.0321 25.6992 12.0875 25.6992 12.1291C25.9625 11.9997 26.0503 11.8889 25.9625 11.8011ZM27.1449 16.5909C27.1449 16.674 27.108 16.7987 27.0433 16.9511C26.9787 17.1036 26.9694 17.2237 27.011 17.3114C27.1449 16.8726 27.1865 16.6324 27.1449 16.5909ZM26.8817 17.4407C26.8817 17.5285 26.8493 17.6486 26.7847 17.801C26.7154 17.9534 26.7061 18.0735 26.7477 18.1613C26.8817 17.7271 26.9232 17.4869 26.8817 17.4407ZM26.6184 18.4246C26.6184 18.5123 26.563 18.6878 26.4567 18.9511C26.3459 19.2098 26.3135 19.4084 26.3551 19.5377C26.3551 19.4961 26.4105 19.3298 26.5214 19.0481C26.6276 18.7617 26.66 18.5539 26.6184 18.4246ZM25.3713 22.7524V22.8817C25.2835 23.0573 25.2651 23.1681 25.3066 23.2097L25.3713 22.9464C25.4175 22.8171 25.4175 22.7524 25.3713 22.7524ZM2.03229 23.0803C1.85677 23.0803 1.76902 23.1219 1.76902 23.2097C1.99072 23.1681 2.07848 23.1219 2.03229 23.0803ZM16.2583 23.6023C16.2168 23.5607 16.0736 23.5053 15.8334 23.4406C15.5932 23.376 15.4269 23.3621 15.3438 23.4083C15.5147 23.4499 15.8242 23.5145 16.2583 23.6023ZM25.1773 23.4729C25.1311 23.5145 25.1126 23.593 25.1126 23.7039C25.1126 23.8101 25.1311 23.8655 25.1773 23.8655V23.4729ZM24.7847 24.8494C24.7847 24.8955 24.7709 24.9602 24.7478 25.048C24.7293 25.1357 24.7154 25.2004 24.7154 25.242C24.7154 25.2882 24.7385 25.3297 24.7847 25.3759C24.7847 25.3297 24.7939 25.2651 24.817 25.1773C24.8355 25.0895 24.8494 25.0249 24.8494 24.9787C24.8494 24.9371 24.8263 24.8955 24.7847 24.8494ZM24.0595 28.7199V29.1126C24.0595 29.0664 24.0826 28.9786 24.1288 28.8493C24.1704 28.8031 24.1473 28.7615 24.0595 28.7199ZM22.1612 37.2417V37.505C22.115 37.5927 22.115 37.6343 22.1612 37.6343C22.3367 37.4588 22.3367 37.3295 22.1612 37.2417ZM22.1612 37.7636C22.115 37.8098 22.0827 37.8745 22.0596 37.9622C22.0411 38.05 22.0504 38.1147 22.0965 38.1609V38.0269C22.1843 37.8976 22.2028 37.8098 22.1612 37.7636ZM23.145 38.0916C23.145 38.3133 23.1635 38.4426 23.2097 38.4888C23.2097 38.2671 23.1866 38.1378 23.145 38.0916ZM23.0804 39.6666C23.0804 39.7128 23.0665 39.7636 23.0434 39.8329C23.0249 39.8975 23.0111 39.9714 23.0111 40.0592C23.0988 40.0592 23.145 40.0038 23.145 39.8975C23.145 39.7867 23.1219 39.7128 23.0804 39.6666ZM22.8817 41.8975C22.8817 41.9853 22.8587 42.1238 22.8171 42.3224C22.7709 42.521 22.794 42.6411 22.8817 42.6827C22.8817 42.6411 22.891 42.5072 22.9141 42.2901C22.9372 42.073 22.9233 41.9391 22.8817 41.8975ZM22.5538 44.2577C22.5538 44.6041 22.5769 44.7797 22.6185 44.7797C22.5769 44.6919 22.5769 44.5949 22.6185 44.4841C22.6647 44.3778 22.6416 44.2993 22.5538 44.2577ZM22.2259 46.3547C22.3136 46.3085 22.3552 45.9806 22.3552 45.3709C22.3136 45.5002 22.2905 45.6757 22.2905 45.8974C22.2905 46.1145 22.2674 46.2669 22.2259 46.3547ZM22.0965 47.1399C22.1381 47.0521 22.1843 46.9228 22.2259 46.7473C22.2674 46.5718 22.249 46.484 22.1612 46.484C22.1612 46.5302 22.1381 46.6272 22.0965 46.7796C22.0504 46.932 22.0504 47.0521 22.0965 47.1399ZM20.9141 46.812C20.8264 46.7704 20.7709 46.8027 20.7525 46.9136C20.7294 47.0198 20.7386 47.0983 20.7848 47.1399C20.7848 47.0983 20.8033 47.0337 20.8495 46.9459C20.8495 46.8997 20.8725 46.8581 20.9141 46.812ZM20.5862 46.8766C20.5862 46.9228 20.5631 47.0106 20.5215 47.1399C20.4753 47.2738 20.4569 47.3801 20.4569 47.4678C20.5446 47.4263 20.6093 47.3246 20.6508 47.1722C20.697 47.0198 20.6739 46.9228 20.5862 46.8766ZM20.3229 49.8281L20.4569 49.6341L20.3922 49.3061C20.346 49.4355 20.3229 49.611 20.3229 49.8281ZM20.3229 49.8927C20.3691 50.0267 20.3783 50.1329 20.3552 50.2207C20.3368 50.3084 20.3229 50.3962 20.3229 50.4839C20.3229 50.5717 20.3691 50.6364 20.4569 50.6825C20.4107 50.5948 20.4014 50.4608 20.4245 50.2899C20.443 50.1144 20.4107 49.9805 20.3229 49.8927ZM22.5538 35.3387C22.5954 35.3849 22.5954 35.4496 22.5538 35.5374V35.602C22.5954 35.602 22.6185 35.5789 22.6185 35.5374C22.6185 35.8884 22.5446 36.4657 22.3875 37.274C22.2351 38.0823 22.1612 38.6828 22.1612 39.0754H22.0273C21.9857 39.2971 21.9072 39.8421 21.8009 40.7151C21.6901 41.588 21.5469 42.267 21.3714 42.7474C21.4176 42.9691 21.4176 43.2416 21.3714 43.5695C21.3298 43.8975 21.2652 44.1053 21.1774 44.1884C21.3067 44.8905 21.219 45.6757 20.9141 46.5533C21.0019 46.5533 21.0434 46.5718 21.0434 46.618C20.9603 46.7473 20.9141 46.9228 20.9141 47.1399C20.9141 47.3616 20.9049 47.5463 20.8818 47.6988C20.8587 47.8512 20.7848 47.9297 20.6508 47.9297C20.6508 47.9713 20.6832 48.1006 20.7525 48.3223C20.8171 48.5394 20.8033 48.6502 20.7201 48.6502C20.7201 48.5625 20.697 48.5163 20.6508 48.5163C20.5631 48.8258 20.5215 49.2368 20.5215 49.7634C20.5215 50.2899 20.4984 50.6594 20.4569 50.8765C20.4569 50.835 20.3922 50.7472 20.2582 50.6179C20.2582 50.701 20.2906 50.8026 20.3552 50.9089C20.4245 51.0197 20.4569 51.0982 20.4569 51.1398H20.5215L20.5862 51.0751C20.6739 51.2507 20.7201 51.4031 20.7201 51.5324C20.8495 51.6202 21.1127 51.6664 21.5053 51.6664C21.8102 51.186 22.0734 50.6594 22.2905 50.0913C22.5076 49.5232 22.6831 49.0105 22.8171 48.5486C22.9464 48.0914 23.0804 47.4909 23.2097 46.7473C23.339 46.0037 23.4268 45.4494 23.473 45.0753C23.5145 44.7058 23.593 44.0684 23.6993 43.1723C23.8101 42.2762 23.8887 41.6758 23.9302 41.371C24.1057 39.1862 24.1935 37.3941 24.1935 35.9946C24.1057 33.7222 24.1057 32.3688 24.1935 31.93C24.6739 30.1379 25.7223 26.2258 27.3389 20.1936L28.3227 17.2467C28.7615 15.935 29.1079 14.8634 29.3712 14.032C29.6345 13.2006 29.9162 12.2076 30.2257 11.0483C30.5305 9.88893 30.7938 8.83122 31.0109 7.8705C37.0847 5.76893 42.0268 4.70198 45.8282 4.65579C46.3963 4.52646 46.9644 4.52646 47.5325 4.65579C50.1098 4.56803 52.1005 5.11767 53.5 6.29548C53.5416 6.25391 53.5416 6.20772 53.5 6.16615C53.4539 6.11996 53.477 6.09687 53.5647 6.09687C53.3014 5.52875 52.47 4.91906 51.0752 4.26319C51.0752 4.35094 51.0521 4.39251 51.0059 4.39251C51.0059 4.30476 50.9643 4.22162 50.8765 4.13386C48.1653 3.43179 43.7728 3.73664 37.699 5.04839C37.699 5.00682 37.7221 4.96063 37.7637 4.91906V4.8544C37.6759 4.8544 37.6343 4.89597 37.6343 4.98372C37.6343 5.07148 37.5881 5.11767 37.5004 5.11767C37.154 5.20081 35.0755 5.79202 31.2742 6.88669C31.0571 5.96754 30.5952 5.52875 29.8978 5.57494C29.3712 5.57494 28.9786 5.96754 28.7153 6.75274C28.7615 6.66498 28.8262 6.64651 28.914 6.68808C28.8678 6.68808 28.8262 6.73427 28.78 6.82202L28.7153 6.95135C28.7153 6.82202 28.6738 6.75274 28.586 6.75274C28.586 6.79893 28.5537 6.87283 28.489 6.98368C28.4197 7.09454 28.3874 7.21463 28.3874 7.34395C28.4336 7.34395 28.4752 7.30238 28.5214 7.21463C28.5214 7.12687 28.5629 7.0622 28.6507 7.01602C28.6507 7.10377 28.6183 7.19153 28.5537 7.27929C28.489 7.36705 28.4197 7.4779 28.3551 7.60723C28.2904 7.73655 28.235 7.82431 28.1934 7.8705C28.1934 7.82431 28.2257 7.73655 28.2904 7.60723C28.3551 7.4779 28.3689 7.39014 28.3227 7.34395L28.1287 7.73655C28.041 7.91207 27.9532 8.04602 27.8655 8.12916C27.8655 8.04602 27.8193 7.99983 27.7315 7.99983L27.8008 8.12916C27.8424 8.17534 27.8193 8.19844 27.7315 8.19844C27.69 8.19844 27.6669 8.16611 27.6669 8.09682C27.6669 8.03216 27.6253 7.99983 27.5375 7.99983C27.6253 8.21691 27.556 8.32777 27.3389 8.32777C27.3389 8.19844 27.2974 8.12916 27.2096 8.12916C27.2512 8.21691 27.2512 8.2862 27.2096 8.32777C27.1634 8.37395 27.1218 8.37395 27.0757 8.32777L27.1449 8.19844C27.0572 8.19844 27.011 8.24001 27.011 8.32777C27.011 8.41552 26.9879 8.45709 26.9463 8.45709C26.7708 8.50328 26.3874 8.6557 25.8009 8.91898C25.2096 9.18225 24.7385 9.33467 24.3875 9.37624C24.3875 9.51019 24.369 9.55176 24.3228 9.51019H24.2582V9.44091V9.37624H24.1935C24.1473 9.37624 24.0826 9.44091 23.9949 9.57485C23.9533 9.70418 23.8887 9.75037 23.8009 9.70418V9.51019C23.6669 9.72727 23.3713 9.92127 22.9141 10.0968C22.4568 10.2723 22.2028 10.3832 22.1612 10.4247C22.1612 10.2954 22.1381 10.2307 22.0965 10.2307C22.0504 10.2307 22.0273 10.2723 22.0273 10.3601C22.0273 10.4478 22.0088 10.5125 21.9626 10.5587C21.8333 10.5587 21.6254 10.6326 21.3391 10.785C21.0573 10.9374 20.8033 10.9744 20.5862 10.8866V11.0159V11.1453C20.4984 11.1453 20.4014 11.2007 20.2906 11.3115C20.1843 11.4224 20.0827 11.4547 19.995 11.4085C19.9534 11.3208 19.9765 11.2792 20.0643 11.2792H20.1289C20.0412 11.1914 19.9765 11.2145 19.9303 11.3439C19.8887 11.4732 19.8425 11.5425 19.801 11.5425C19.7548 11.5425 19.7548 11.4963 19.801 11.4085V11.3439C19.7132 11.3439 19.667 11.3854 19.667 11.4732C19.667 11.561 19.6486 11.6071 19.6024 11.6071C19.5608 11.6071 19.5146 11.5933 19.473 11.5748C19.4268 11.5517 19.3853 11.5425 19.3391 11.5425C19.2513 11.5425 19.219 11.584 19.2421 11.6718C19.2652 11.7596 19.2513 11.8011 19.2098 11.8011C19.1682 11.8011 19.1312 11.7688 19.1128 11.7041C19.0897 11.6395 19.0573 11.6302 19.0112 11.6718V11.8011L19.0804 11.8704C18.771 11.9536 18.6001 11.9767 18.5539 11.9351C18.5123 12.1106 18.3599 12.2399 18.0966 12.3277L17.704 12.5263L17.6347 12.457H17.5701C17.5701 12.591 17.4823 12.688 17.3068 12.7526C17.1359 12.8173 17.0251 12.808 16.9789 12.7203V12.9189C16.8495 13.0944 16.7849 13.0944 16.7849 12.9189L16.8495 12.8496C16.8911 12.8496 16.8911 12.8311 16.8495 12.7849C16.7618 12.7849 16.674 12.8727 16.5863 13.0482L16.5216 12.9836C16.48 13.0713 16.4107 13.0713 16.323 12.9836C16.323 13.0251 16.3461 13.0713 16.3923 13.1129V13.1775C16.2583 13.2237 16.1198 13.2884 15.9627 13.3762C15.8103 13.4639 15.6717 13.5286 15.5378 13.5748C15.4085 13.6163 15.2745 13.6163 15.1452 13.5748C15.0159 13.8796 14.7942 14.0551 14.4893 14.0967C14.5309 14.0551 14.554 14.0089 14.554 13.9674C14.4662 13.9212 14.4246 13.9535 14.4246 14.0644C14.4246 14.1752 14.4016 14.2306 14.36 14.2306C14.36 14.1429 14.3369 14.0967 14.2907 14.0967C14.2907 14.2306 14.2722 14.3138 14.226 14.36C14.1845 14.36 14.1198 14.3369 14.032 14.2953C13.9443 14.2491 13.8796 14.2491 13.8334 14.2953C13.8796 14.3831 13.8334 14.4708 13.7041 14.5586V14.4246C13.6163 14.3831 13.5378 14.4015 13.4732 14.4893C13.4085 14.5771 13.33 14.6232 13.2422 14.6232C13.2007 14.6648 13.1868 14.7202 13.2099 14.7849C13.233 14.8496 13.2007 14.8865 13.1129 14.8865C13.0667 14.9281 13.0251 14.9281 12.9836 14.8865C12.9374 14.8403 12.8958 14.8172 12.8496 14.8172V14.9512C12.8496 15.0389 12.8265 15.0805 12.785 15.0805C12.7388 15.0805 12.7203 15.0574 12.7203 15.0158C12.7203 14.9697 12.6972 14.9512 12.6556 14.9512V15.0158C12.6972 15.0574 12.6972 15.0805 12.6556 15.0805C12.6094 15.0805 12.5863 15.0574 12.5863 15.0158C12.5863 14.9697 12.5679 14.9512 12.5217 14.9512C12.4801 15.0389 12.4801 15.1267 12.5217 15.2098C12.2584 15.3438 12.106 15.4315 12.0644 15.4731C12.0644 15.3438 12.0182 15.2976 11.9305 15.3438C11.9767 15.4315 11.9767 15.487 11.9305 15.5054C11.8889 15.5285 11.8473 15.4962 11.8011 15.4085V15.6071C11.7596 15.6486 11.7134 15.6486 11.6718 15.6071V15.4731V15.6717L11.6025 15.6071H11.4732L11.4085 15.7364C11.4085 15.8241 11.3854 15.8657 11.3439 15.8657H11.2746C11.1915 15.9119 11.1222 15.9119 11.0806 15.8657C11.0806 15.9997 11.0344 16.0643 10.9513 16.0643C10.9513 16.0228 10.9051 15.9535 10.8173 15.8657C10.7758 15.9535 10.785 16.0228 10.8497 16.0643C10.9143 16.1059 10.9282 16.1521 10.882 16.1937C10.8404 16.1521 10.7758 16.1521 10.688 16.1937C10.6002 16.2398 10.5541 16.2167 10.5541 16.129C10.5125 16.129 10.5032 16.1752 10.5217 16.2629C10.5448 16.3507 10.5356 16.3923 10.4894 16.3923H10.4247C10.3785 16.3045 10.2723 16.3045 10.0968 16.3923C9.92127 16.48 9.81042 16.5216 9.76885 16.5216V16.7849L9.63952 16.6555V16.8495C9.59334 16.808 9.55177 16.8172 9.50558 16.8819C9.46401 16.9511 9.41782 16.9835 9.37625 16.9835C9.37625 16.8957 9.35316 16.8495 9.31159 16.8495C9.2654 16.9373 9.22383 17.002 9.17764 17.0481C9.08988 17.0481 9.04831 17.0712 9.04831 17.1128H8.98365C8.98365 17.0712 8.96055 17.0481 8.91437 17.0481C8.91437 17.1359 8.89589 17.2006 8.8497 17.2467C8.80813 17.2006 8.74347 17.1913 8.65571 17.2098C8.56795 17.2329 8.52176 17.2237 8.52176 17.1775V17.3761C8.48019 17.5516 8.39244 17.5701 8.26311 17.4407C8.30468 17.6163 8.26311 17.704 8.12916 17.704C8.12916 17.5701 8.10607 17.5054 8.0645 17.5054C8.0645 17.5516 8.07374 17.607 8.09683 17.6717C8.11992 17.7363 8.10607 17.7687 8.0645 17.7687C8.0645 17.7271 8.00907 17.7363 7.89822 17.801C7.79199 17.8657 7.69499 17.8564 7.60723 17.7687V18.032C7.56104 18.032 7.46405 18.0735 7.31163 18.1613C7.15921 18.249 7.03912 18.3137 6.95136 18.3599C6.8636 18.4015 6.75275 18.4015 6.62342 18.3599C6.62342 18.6232 6.53566 18.6878 6.36015 18.5539C6.31396 18.7756 6.14306 18.8818 5.8336 18.8818L5.90288 18.9511V19.0158C5.76893 18.9696 5.63961 19.0158 5.50566 19.1451C5.37633 19.279 5.26548 19.3206 5.17772 19.279C5.17772 19.5839 5.07149 19.6716 4.84978 19.5377V19.607C4.89597 19.6485 4.89597 19.6716 4.84978 19.6716H4.78512L4.72046 19.607C4.6327 19.7363 4.54494 19.7779 4.45718 19.7363V19.9303V19.8656C4.41561 19.8241 4.36942 19.801 4.32786 19.801C4.32786 19.9303 4.30476 19.9996 4.26319 19.9996C4.12924 19.9996 3.99068 20.0411 3.83364 20.1289C3.68122 20.2167 3.5288 20.3368 3.37637 20.4892C3.22395 20.6416 3.10386 20.7432 3.0161 20.7848C2.88678 20.7432 2.75283 20.794 2.6235 20.9511C2.48956 21.1035 2.38332 21.1543 2.29556 21.1127C2.16162 21.242 1.82444 21.5192 1.27942 21.9303C0.734396 22.3459 0.351032 22.6877 0.129328 22.9464C0.129328 22.8633 0.230942 22.7386 0.424933 22.5861C0.623544 22.4337 0.67897 22.3136 0.591212 22.2259L0.457265 22.3598C0.415696 22.4476 0.351032 22.466 0.263274 22.4245C0.304844 22.5538 0.304844 22.6416 0.263274 22.6877C0.217086 22.7293 0.161659 22.7755 0.0969957 22.8171C0.0323319 22.8633 0 22.9279 0 23.0157C0 23.0573 0.0323319 23.0896 0.0969957 23.1127C0.161659 23.1358 0.19861 23.1681 0.19861 23.2097C0.24018 23.7362 0.591212 24.0318 1.24709 24.0965C1.90296 24.1612 2.44799 24.1288 2.88678 23.9995C7.77813 23.5145 10.9051 23.2328 12.2584 23.145C12.3046 23.145 13.3115 23.2097 15.2745 23.3436C15.0574 23.2974 14.6741 23.2328 14.129 23.145C13.584 23.0573 13.2237 22.9695 13.0482 22.8817C13.136 22.8817 13.3762 22.9141 13.7688 22.9833C14.1614 23.048 14.4246 23.0573 14.554 23.0157C14.1198 22.8817 13.4177 22.7755 12.457 22.6877C11.4963 22.6 10.7758 22.466 10.2954 22.2905C10.2954 22.3783 10.3462 22.4476 10.4571 22.4891C10.5679 22.5353 10.6418 22.5769 10.688 22.6185C10.6002 22.6185 10.1615 22.6092 9.37625 22.5861C8.59105 22.5677 8.17535 22.6185 8.12916 22.7524C8.0414 22.5769 7.73656 22.6 7.21001 22.8171V22.6877C6.8636 22.7755 6.64189 22.8402 6.55414 22.8817C6.55414 22.8402 6.56799 22.8171 6.59109 22.8171C6.60956 22.8171 6.62342 22.794 6.62342 22.7524C6.0553 22.8817 5.20082 22.9926 4.06458 23.0803C2.92835 23.1681 2.12005 23.2559 1.63969 23.3436V23.145H1.24709C1.76902 22.7062 2.33713 22.272 2.95144 21.8333C3.56113 21.3991 4.12001 21.0019 4.62346 20.6555C5.12691 20.3044 5.7597 19.898 6.52181 19.4407C7.28853 18.9834 7.87974 18.6232 8.29544 18.3599C8.71114 18.0966 9.36239 17.7133 10.2584 17.2098C11.1545 16.711 11.7688 16.3692 12.0967 16.1937C12.4247 16.0228 13.1037 15.6717 14.129 15.1452C15.1544 14.6232 15.7918 14.2953 16.032 14.1614C16.2722 14.032 16.9604 13.681 18.0966 13.1129C19.2329 12.5448 19.8656 12.2168 19.995 12.1291C20.346 11.9997 21.4268 11.5517 23.242 10.785C25.0572 10.0229 26.4198 9.464 27.3389 9.11297C27.2096 9.464 26.9879 9.92127 26.6831 10.4894C26.3782 11.0575 26.1611 11.4963 26.0272 11.8011C26.2027 11.6302 26.4013 11.3115 26.6184 10.8543C26.8355 10.3924 26.9879 10.0783 27.0757 9.90279C27.0757 9.99055 27.0572 10.0875 27.011 10.1984C26.9694 10.3046 26.9694 10.4062 27.011 10.4894C26.9694 10.4478 26.8817 10.4894 26.7477 10.6233C26.7939 10.6649 26.7477 10.8866 26.6184 11.2792C26.7061 11.233 26.7708 11.2145 26.817 11.2145C26.5953 11.4316 26.5768 11.561 26.7477 11.6071L26.817 11.5425C26.817 11.4547 26.8355 11.4085 26.8817 11.4085L26.9463 11.5425C26.9463 11.4547 27.0018 11.3854 27.108 11.3439C27.2188 11.3023 27.2974 11.233 27.3389 11.1453L27.4729 11.4085C27.556 11.233 27.8331 10.7988 28.2904 10.0968C28.7477 9.39934 29.0664 8.83122 29.2419 8.39243C29.2835 8.39243 29.3481 8.37395 29.4359 8.32777C29.5236 8.24001 29.5929 8.21691 29.6345 8.2631C29.459 9.09449 29.1449 10.2307 28.683 11.6718C28.2257 13.1129 27.9301 14.1614 27.8008 14.8172C28.0595 13.9027 28.4983 12.5679 29.1079 10.8173C29.1541 10.6464 29.2188 10.3693 29.3066 9.99979C29.3943 9.63028 29.4821 9.30234 29.5698 9.01597C29.6576 8.73422 29.7638 8.45709 29.8978 8.19844C29.81 8.72037 29.6114 9.51943 29.3066 10.591C29.0017 11.6626 28.78 12.4801 28.6507 13.0482H28.4521C28.4521 13.5286 28.2581 14.2491 27.8655 15.2098H27.8008C27.8008 15.5193 27.556 16.3923 27.0757 17.8333V17.5701C26.9879 18.2721 26.8355 18.7941 26.6184 19.1451V19.376C26.6184 19.4823 26.6415 19.5377 26.6831 19.5377C26.6415 19.5377 26.6091 19.57 26.5861 19.6393C26.563 19.704 26.5306 19.7132 26.4891 19.6716C26.5306 19.7594 26.4198 20.1058 26.1611 20.7201C26.2027 20.8079 26.138 21.0481 25.9625 21.4407L26.0918 21.3113C26.0918 21.4822 26.0272 21.7594 25.8978 22.1289C25.7639 22.4984 25.7223 22.7755 25.7639 22.9464C25.6808 22.9048 25.6346 22.9279 25.6346 23.0157C25.6346 23.1034 25.6115 23.145 25.5699 23.145V23.0157H25.5052C25.593 23.145 25.593 23.3436 25.5052 23.6023C25.4591 23.7778 25.3944 23.8425 25.3066 23.8009C25.3944 23.9764 25.3713 24.1935 25.242 24.4568C25.1126 24.72 25.0665 24.914 25.1126 25.048H24.9787L24.914 25.1773C24.914 25.2651 24.9371 25.3066 24.9787 25.3066C24.9787 25.2235 25.0018 25.1773 25.0434 25.1773C24.9556 25.7916 24.7847 26.5121 24.5214 27.3389C24.3459 27.3851 24.3228 27.4729 24.4568 27.6022C24.4568 27.4729 24.4752 27.4267 24.5214 27.4729V27.5375C24.4752 27.6253 24.4568 27.6899 24.4568 27.7361C24.369 27.6484 24.3228 27.6669 24.3228 27.8008H24.4568C24.4568 27.8424 24.4337 27.907 24.3875 27.9948C24.3875 28.1287 24.369 28.1934 24.3228 28.1934V27.9301C24.2813 27.9301 24.2351 27.9856 24.1935 28.0964C24.1473 28.2026 24.1473 28.2812 24.1935 28.3227C24.2813 28.235 24.369 28.2165 24.4568 28.2581C24.3228 28.392 24.2351 28.6091 24.1935 28.9139C24.1473 29.2188 24.0826 29.4405 23.9949 29.5698C23.9533 29.5282 23.8887 29.5467 23.8009 29.6345C23.8009 29.7222 23.8332 29.7453 23.8979 29.6991C23.9626 29.6576 23.9949 29.6576 23.9949 29.6991C23.9949 29.7869 23.9395 29.8654 23.8332 29.9301C23.7224 29.9948 23.69 30.0733 23.7316 30.161L23.8009 30.2257L23.8656 30.2904C23.69 30.5952 23.6023 30.9924 23.6023 31.4728C23.473 30.9462 23.4037 30.6645 23.4037 30.6183C23.3621 30.6183 23.3205 30.5213 23.2743 30.3227C23.2328 30.1287 23.2328 30.0086 23.2743 29.9624C23.2743 30.0086 23.2328 30.0271 23.145 30.0271C22.2259 27.4498 20.9141 25.7454 19.2098 24.914V24.9787C18.0735 24.2812 17.1359 23.824 16.3923 23.6023C16.5678 23.8655 16.808 23.9533 17.1128 23.8655C20.346 25.2235 22.3136 28.041 23.0111 32.3226C22.9695 32.4104 22.9372 32.609 22.9141 32.9139C22.891 33.2187 22.8356 33.4404 22.7524 33.5697C22.8356 33.5697 22.8817 33.6483 22.8817 33.8007C22.8817 33.9531 22.9048 34.027 22.9464 34.027V33.833C22.9464 33.7452 22.9695 33.6991 23.0111 33.6991C22.8817 33.6575 22.8587 33.482 22.9464 33.1771C23.0342 32.8723 23.0573 32.6737 23.0111 32.5859C23.0988 32.7152 23.1312 32.9462 23.1127 33.2741C23.0896 33.6021 23.0988 33.8099 23.145 33.8977C23.0111 34.027 22.9233 34.2995 22.8817 34.7152C22.8356 35.1309 22.7709 35.4034 22.6831 35.5374L22.6185 35.4034C22.6185 35.3618 22.5954 35.3387 22.5538 35.3387ZM27.5375 9.18225V8.98364C27.6253 9.0714 27.6669 9.15916 27.6669 9.24691C27.6253 9.20073 27.5791 9.18225 27.5375 9.18225ZM12.5863 22.8171C12.4986 22.9048 12.2399 22.9048 11.8011 22.8171H12.5863ZM19.8656 25.3759C19.6024 25.3759 19.4268 25.242 19.3391 24.9787C19.4268 25.0249 19.5285 25.0895 19.6347 25.1773C19.7456 25.2651 19.8241 25.3297 19.8656 25.3759ZM22.4891 39.9299C22.443 39.6666 22.4753 39.3063 22.5861 38.8491C22.697 38.3872 22.7524 38.0731 22.7524 37.8976V38.0269C22.7062 38.1609 22.7062 38.2671 22.7524 38.3549C22.8356 38.1378 22.9372 37.7867 23.0434 37.3064C23.1543 36.826 23.2097 36.5627 23.2097 36.5212C23.2513 36.475 23.2743 36.5396 23.2743 36.7152C23.3621 36.6736 23.3944 36.6089 23.3713 36.5212C23.3529 36.4334 23.2974 36.4103 23.2097 36.4565C23.2974 36.1932 23.3205 35.9946 23.2743 35.8653C23.4914 38.4426 23.2513 41.5696 22.5538 45.2415C22.7293 45.588 22.6831 45.8097 22.4245 45.8974C22.4245 46.0267 22.249 46.9459 21.8979 48.6502H21.8333C21.7871 48.6041 21.7455 48.5856 21.6993 48.5856C21.6578 48.6272 21.6808 48.8027 21.7686 49.1075C21.6808 49.0659 21.6162 49.1306 21.57 49.3061C21.5284 49.4816 21.4591 49.5232 21.3714 49.4355C21.4176 49.4816 21.3714 49.7403 21.2421 50.2207C21.1127 49.7403 21.1127 48.8766 21.2421 47.6341C21.3714 46.387 21.473 45.491 21.5377 44.9459C21.6023 44.3963 21.7455 43.5141 21.9626 42.2901C22.1843 41.0661 22.3136 40.2347 22.3552 39.7959C22.4014 39.7544 22.4245 39.7775 22.4245 39.8652L22.4891 39.9299ZM21.57 44.1238C21.5284 44.0822 21.5053 43.842 21.5053 43.4032C21.5469 43.4032 21.57 43.4587 21.57 43.5695C21.57 43.6758 21.5608 43.7774 21.5377 43.8651C21.5146 43.9483 21.5284 44.036 21.57 44.1238ZM21.2421 46.0267C21.1543 45.939 21.1774 45.6757 21.3067 45.2415C21.3529 45.3293 21.3529 45.4679 21.3067 45.6665C21.2652 45.8605 21.2421 45.9806 21.2421 46.0267ZM20.5862 49.5648C20.5862 49.4816 20.5954 49.3708 20.6185 49.2368C20.6416 49.1075 20.6739 48.9967 20.7201 48.9135C20.7617 48.9967 20.7617 49.1306 20.7201 49.3061C20.6739 49.4816 20.6324 49.5648 20.5862 49.5648ZM27.7315 14.8172C27.7315 14.9512 27.6669 15.159 27.5375 15.4408C27.4036 15.7271 27.3389 15.9535 27.3389 16.129C27.6022 15.3438 27.7315 14.905 27.7315 14.8172ZM26.3551 19.6716C26.0918 20.1058 25.8748 20.7848 25.6992 21.7039C25.9625 20.8264 26.1796 20.152 26.3551 19.6716ZM24.5214 26.0318C24.5214 26.0734 24.4983 26.1842 24.4568 26.3597C24.4106 26.5306 24.4106 26.6415 24.4568 26.6877C24.4568 26.6415 24.4891 26.5306 24.5538 26.3597C24.6184 26.1842 24.6092 26.0734 24.5214 26.0318ZM24.2582 27.1449C24.1704 27.362 24.1473 27.5375 24.1935 27.6669C24.1935 27.6253 24.2258 27.5283 24.2905 27.3759C24.3552 27.2188 24.3459 27.1449 24.2582 27.1449ZM22.6831 38.4195C22.7293 38.5073 22.7293 38.6412 22.6831 38.8167C22.6416 38.9876 22.6185 39.0985 22.6185 39.1447C22.6185 39.0569 22.6416 38.9553 22.6831 38.8491C22.7293 38.7382 22.7524 38.6597 22.7524 38.6181C22.7524 38.5719 22.7293 38.5073 22.6831 38.4195Z" fill="#FA8CDA"/>
<path fill-rule="evenodd" clip-rule="evenodd" d="M30.6829 39.1446C31.034 37.1308 31.2095 36.1054 31.2095 36.0592C31.1633 36.147 31.1864 36.2809 31.2742 36.4564H31.0755C31.0755 36.498 31.0986 36.5396 31.1402 36.5858C31.2742 36.498 31.3481 36.3872 31.3711 36.2578C31.3942 36.1285 31.3942 35.9946 31.3711 35.8652C31.3481 35.7313 31.3619 35.5604 31.4035 35.3387H31.5374C31.7545 33.9854 32.1702 32.184 32.7799 29.93C33.3942 27.6806 33.7452 26.3366 33.8284 25.8978C34.1378 25.2419 34.5166 24.2812 34.9785 23.0156C35.4357 21.7454 35.7544 20.8956 35.9299 20.4568C36.4519 19.279 37.5881 16.9372 39.3386 13.4408C39.4264 13.3992 39.4911 13.3438 39.5326 13.2791C39.5788 13.2144 39.6204 13.1128 39.6666 12.9835C39.7082 12.8495 39.7543 12.7433 39.7959 12.6556C39.8421 12.5262 39.916 12.383 40.0269 12.2306C40.1331 12.0782 40.2208 11.9442 40.2901 11.8334C40.3548 11.7272 40.4287 11.5932 40.5165 11.4408C40.6042 11.2884 40.6596 11.136 40.6827 10.9835C40.7012 10.8311 40.692 10.6648 40.6504 10.4893C40.6042 10.5355 40.5811 10.5124 40.5811 10.4247C40.0592 10.2491 39.7728 10.1614 39.7313 10.1614C39.6435 10.3831 39.4264 10.6879 39.0754 11.0805C38.7243 11.4731 38.5488 11.7826 38.5488 11.9997C38.4657 11.9535 38.4103 11.9673 38.3872 12.032C38.3641 12.0967 38.3086 12.129 38.2209 12.129C38.1378 12.3045 37.9484 12.577 37.6666 12.9512C37.3803 13.3207 37.1724 13.6163 37.0431 13.8334C36.6921 14.1428 36.2764 14.7294 35.796 15.607H35.7313V15.6717C35.6436 15.7132 35.6667 15.7594 35.796 15.801C35.8422 15.7132 35.9069 15.607 35.9946 15.473L36.1886 15.2098C36.1886 15.256 36.1563 15.3206 36.0916 15.4084C36.0269 15.4961 36.0177 15.5608 36.0593 15.607C36.5396 14.9049 36.8445 14.4892 36.9784 14.3599L36.9138 14.4246C37.0431 14.2952 37.274 14.032 37.602 13.6394C37.9299 13.2468 38.2024 12.9604 38.4195 12.7849L37.9946 13.6394L37.5696 14.4892C37.6112 14.3599 37.6759 14.2952 37.7636 14.2952C37.7221 14.3368 37.6897 14.4015 37.6666 14.4892C37.6435 14.577 37.6112 14.6555 37.5696 14.7202C37.5234 14.7848 37.4819 14.8172 37.4357 14.8172C37.4357 14.7756 37.4588 14.7294 37.5004 14.6878C37.5465 14.6417 37.5465 14.6001 37.5004 14.5585C37.3248 14.7294 37.3064 14.8634 37.4357 14.9511C34.8999 20.1057 33.0016 25.4636 31.7314 31.0108C31.8192 31.0108 31.8654 31.0339 31.8654 31.0801V31.1771C31.8654 31.2002 31.8423 31.2325 31.7961 31.2741C31.7961 31.1863 31.7776 31.1217 31.7314 31.0801C31.6898 31.251 31.6344 31.4912 31.5698 31.8006C31.5051 32.1055 31.4497 32.378 31.4035 32.6182C31.3619 32.8584 31.3388 33.0893 31.3388 33.3064L31.4035 33.2417C31.3157 33.2833 31.2603 33.3711 31.2418 33.505C31.2187 33.6343 31.1864 33.699 31.1402 33.699C31.228 33.9207 31.1633 34.2486 30.9462 34.6828L31.0755 34.8167C31.1217 34.8583 31.1402 34.9045 31.1402 34.9461L31.0755 34.8814H30.9462C30.9462 35.0985 30.9 35.4726 30.8123 35.9946C30.7291 36.5211 30.7291 36.8906 30.8123 37.1077C30.7707 37.1955 30.7291 37.2416 30.6829 37.2416C30.6414 37.2416 30.6183 37.2647 30.6183 37.3063C30.6183 37.4356 30.5721 37.7867 30.489 38.3548C30.4012 38.9229 30.3781 39.3155 30.4197 39.5372C30.3781 39.7127 30.3134 40.0407 30.2257 40.521C30.1379 41.0014 30.0502 41.3709 29.9624 41.6342C30.0917 41.9852 30.3134 42.2254 30.6183 42.3547C30.7476 42.1376 31.3388 40.7381 32.3873 38.1608C33.2187 35.8883 33.9623 33.9207 34.6182 32.2579C34.8815 31.736 35.3156 30.7522 35.9299 29.3065C37.5004 26.6414 38.6181 24.9786 39.274 24.3274C39.274 24.937 39.1308 25.9855 38.8444 27.4728C38.5627 28.9601 38.4426 30.0963 38.4842 30.8815H38.3548V32.5212C38.3548 33.4819 38.4195 34.2486 38.5488 34.8167C38.6828 35.3849 38.946 35.8652 39.3386 36.2578C39.4264 36.2578 39.6851 36.2116 40.1239 36.1285C40.1239 36.0823 40.17 35.9715 40.2578 35.8006C39.9483 35.9299 39.6851 35.9946 39.468 35.9946C39.0754 34.0731 39.0754 31.8422 39.468 29.3065C39.5142 28.8723 39.6435 28.1841 39.8606 27.2418C40.0823 26.3042 40.2116 25.5467 40.2578 24.9786V24.1288C40.17 23.7777 39.9068 23.5375 39.468 23.4082C39.0338 23.2743 38.7705 23.362 38.6828 23.6715C38.6366 23.6253 38.595 23.6345 38.5488 23.7038C38.5073 23.7685 38.4657 23.8008 38.4195 23.8008C38.3779 23.8424 38.3779 23.9301 38.4195 24.0641V24.1288C38.3779 24.1288 38.3548 24.0964 38.3548 24.0318C38.3548 23.9625 38.3317 23.9301 38.2902 23.9301C38.2024 24.1518 38.0916 24.2812 37.9622 24.3274V24.6507V24.5214C37.9622 24.4798 37.9391 24.4567 37.8976 24.4567C37.8514 24.4567 37.8283 24.5214 37.8283 24.6507V24.7846L37.7636 24.72L37.699 24.6507C37.699 24.6969 37.6528 24.7384 37.5696 24.7846L37.6343 24.9786C37.6759 25.1126 37.6759 25.1772 37.6343 25.1772C37.6343 25.0479 37.6112 24.9786 37.5696 24.9786C37.5696 25.2881 37.5004 25.4636 37.371 25.5052C37.3248 25.4636 37.3387 25.3943 37.4034 25.3066C37.468 25.2234 37.4588 25.1772 37.371 25.1772C37.3248 25.265 37.3064 25.3527 37.3064 25.4405C37.3064 25.5283 37.2833 25.5929 37.2417 25.6345C37.2417 25.5052 37.2186 25.4405 37.1724 25.4405C37.0847 25.5283 37.0338 25.6576 37.0108 25.8331C36.9877 26.0086 36.9646 26.1287 36.9461 26.1934C36.923 26.258 36.8445 26.2719 36.7151 26.2257C36.7151 26.2719 36.7244 26.3227 36.7475 26.392C36.7706 26.4566 36.7567 26.489 36.7151 26.489L36.6505 26.4243C36.6505 26.3781 36.6274 26.3597 36.5858 26.3597C36.6274 26.4012 36.6505 26.489 36.6505 26.6183L36.5858 26.7523C36.4103 26.7061 36.2764 26.8169 36.1886 27.0802C36.2348 27.0802 36.2671 27.0479 36.2902 26.9786C36.3087 26.9139 36.3456 26.9047 36.3872 26.9462C36.3872 27.1218 36.3641 27.2095 36.3225 27.2095C36.3225 27.1218 36.2995 27.0802 36.2579 27.0802V27.3388C36.2579 27.385 36.2348 27.4497 36.1886 27.5375H35.9299C35.9715 27.6252 35.9715 27.713 35.9299 27.8007C35.8838 27.7545 35.8838 27.713 35.9299 27.6668C35.9715 27.6252 35.9484 27.6021 35.8607 27.6021C35.8607 27.7776 35.8191 27.8654 35.7313 27.8654C35.7313 27.907 35.7544 27.9439 35.796 27.9624C35.8422 27.9855 35.8422 28.0178 35.796 28.064C35.7082 28.0178 35.6436 28.064 35.602 28.1933H35.796C35.5789 28.5444 35.4681 28.803 35.4681 28.9785L35.3387 28.8492C35.1632 29.288 35.0108 29.5467 34.8815 29.6344C34.923 29.6806 34.923 29.7453 34.8815 29.833V30.0963L34.7475 30.027C34.7937 30.0732 34.7706 30.1148 34.6829 30.161V30.2903C34.7244 30.2903 34.7475 30.2718 34.7475 30.2256C34.7475 30.1841 34.7706 30.1841 34.8122 30.2256C34.8122 30.4889 34.7244 30.5305 34.5535 30.3549C34.5535 30.4011 34.572 30.4335 34.6182 30.4566C34.6598 30.475 34.6829 30.512 34.6829 30.5536C34.5073 30.6829 34.3318 30.8584 34.1563 31.0801C34.2441 31.1217 34.2672 31.1863 34.2256 31.2741C34.1794 31.3619 34.2025 31.4496 34.2903 31.5374C33.9854 31.6667 33.8977 31.8653 34.027 32.1286H33.8977C33.8977 32.3041 33.8746 32.4103 33.8284 32.4565C33.8284 32.4103 33.7868 32.3041 33.699 32.1286C33.7452 32.3457 33.7221 32.5628 33.6344 32.7845C33.5882 32.9554 33.5235 33.0246 33.4358 32.9785C33.4358 33.2002 33.4173 33.3064 33.3711 33.3064C33.3711 33.2648 33.348 33.2417 33.3064 33.2417C33.3064 33.3295 33.2833 33.3711 33.2418 33.3711C33.2833 33.505 33.2187 33.7867 33.0432 34.2255C33.0432 34.0962 33.0201 34.05 32.9785 34.0962C33.0663 34.7475 32.9323 35.0754 32.5859 35.0754V35.4033C32.5859 35.4911 32.5628 35.5604 32.5212 35.602C32.5212 35.5604 32.4981 35.5142 32.452 35.4726C32.452 35.3849 32.4335 35.3618 32.3873 35.4033C32.4751 35.5373 32.4843 35.7128 32.4196 35.9299C32.355 36.147 32.3226 36.2994 32.3226 36.3872C32.2764 36.3872 32.2349 36.4195 32.1933 36.4888C32.1471 36.5534 32.0825 36.5858 31.9947 36.5858V36.9784C31.9069 36.9784 31.8838 36.946 31.93 36.8814C31.9716 36.8167 31.9716 36.7844 31.93 36.7844V37.1077C31.93 37.2832 31.9069 37.4356 31.8654 37.5696C31.8192 37.6989 31.7314 37.7867 31.6021 37.8329C31.6021 37.8744 31.6113 37.9391 31.6344 38.0268C31.6575 38.1146 31.6437 38.1608 31.6021 38.1608V38.0915C31.6021 38.0037 31.5559 37.9853 31.4681 38.0268C31.4681 38.1608 31.5143 38.2255 31.6021 38.2255C31.385 38.2255 31.2742 38.5303 31.2742 39.1446C31.2742 39.0568 31.228 38.9691 31.1402 38.8813V39.0107V39.1446C31.0571 39.1862 30.9878 39.2093 30.9462 39.2093C30.9 39.2508 30.8908 39.3155 30.9139 39.4033C30.9324 39.491 30.9 39.5372 30.8123 39.5372C30.8585 39.4033 30.8585 39.2739 30.8123 39.1446C30.9462 39.1446 31.0109 39.1215 31.0109 39.0753C30.9693 38.8167 31.0016 38.401 31.1079 37.8329C31.2187 37.2647 31.2511 36.8906 31.2095 36.7151C31.034 36.9784 30.9878 37.3063 31.0755 37.6989C30.9878 37.7451 30.9462 37.819 30.9462 37.9298C30.9462 38.0407 30.9231 38.1146 30.8816 38.1608C30.9231 38.1608 30.9693 38.2024 31.0109 38.2901V38.4194C30.8816 38.4656 30.8123 38.595 30.8123 38.8167C30.8123 39.0338 30.7707 39.1446 30.6829 39.1446ZM37.8283 14.2306C37.7867 14.1844 37.796 14.1105 37.8606 13.9996C37.9299 13.8888 37.9622 13.8149 37.9622 13.7687C38.05 13.8149 38.0269 13.9026 37.8976 14.032C37.8514 14.1197 37.8283 14.1844 37.8283 14.2306ZM37.1724 13.6394C37.1308 13.7687 36.9877 14.0227 36.7475 14.3922C36.5073 14.7617 36.3456 15.0389 36.2579 15.2098C36.2995 14.9511 36.4426 14.6555 36.6828 14.3276C36.923 13.9996 37.0847 13.7687 37.1724 13.6394ZM31.0755 35.9946C31.1217 35.9068 31.1217 35.819 31.0755 35.7313L31.2095 35.8006V35.8652L31.0755 35.9946ZM35.9299 15.7363C35.8838 15.7363 35.8283 15.8148 35.7637 15.9673C35.699 16.1197 35.6205 16.1751 35.5327 16.1289C35.6205 15.9118 35.6436 15.801 35.602 15.801C34.3318 18.0735 33.676 19.279 33.6344 19.4083C34.8122 17.3113 35.4265 16.2167 35.4681 16.1289C35.5558 16.1289 35.5789 16.1751 35.5327 16.2629C35.4912 16.3506 35.4912 16.3922 35.5327 16.3922C35.5789 16.3506 35.6436 16.2398 35.7313 16.0643C35.8191 15.8887 35.8838 15.7779 35.9299 15.7363ZM36.6505 16.4569C36.6921 16.4153 36.7475 16.3368 36.8121 16.2259C36.8768 16.1197 36.9138 16.0227 36.9138 15.9349C36.6505 16.0643 36.5627 16.2398 36.6505 16.4569Z" fill="#FA8CDA"/>
<path fill-rule="evenodd" clip-rule="evenodd" d="M49.5002 30.9461H49.4355L49.3709 30.8814C49.3709 31.0108 49.3247 31.274 49.2369 31.6666C49.1492 32.0592 49.1076 32.3225 49.1076 32.4565V32.3872C49.1076 32.4749 49.0614 32.7521 48.9737 33.2093C48.8859 33.6666 48.8859 33.9391 48.9737 34.0269C48.5811 35.2509 48.4517 36.4102 48.5811 37.5049C48.6272 37.9852 48.7658 38.3547 49.006 38.618C49.2508 38.8813 49.5649 38.9875 49.9575 38.9459L49.8928 38.8166C49.9806 38.8997 50.0452 38.9459 50.0914 38.9459C50.1792 38.7704 50.3963 38.4887 50.7473 38.0914C51.0937 37.6988 51.3339 37.3524 51.4678 37.043C51.3801 37.0892 51.163 37.3524 50.812 37.8328C50.4609 38.3132 50.0914 38.5302 49.6988 38.4887C49.0845 38.4009 48.9737 37.2185 49.3709 34.946C49.8928 31.6666 50.9182 27.9762 52.4516 23.8654C52.932 22.6876 53.2138 21.8793 53.3015 21.4405C53.3477 21.1773 53.2692 20.9694 53.0752 20.817C52.8766 20.6646 52.6456 20.6091 52.387 20.6553C51.0752 22.3597 50.2854 23.5144 50.0221 24.1287C49.6295 24.3458 49.4355 24.6737 49.4355 25.1125C49.4771 25.2003 49.454 25.2418 49.3709 25.2418V25.1772C49.3247 25.1356 49.2831 25.1125 49.2369 25.1125C49.1954 25.2003 49.1492 25.3296 49.1076 25.5051C49.0614 25.6806 49.0429 25.7915 49.0429 25.833C48.9968 25.7915 48.9875 25.7453 49.006 25.7037C49.0291 25.6575 49.0198 25.6344 48.9737 25.6344C48.8859 25.7222 48.6919 26.1379 48.3871 26.8815C48.3871 26.706 48.364 26.6182 48.3178 26.6182C48.3178 26.706 48.2993 26.7845 48.2531 26.8492C48.2116 26.9139 48.1885 26.9693 48.1885 27.0155C48.1885 27.057 48.2116 27.0986 48.2531 27.1448C48.1238 27.0986 48.036 27.1679 47.9898 27.3388C47.9483 27.5143 47.8836 27.6021 47.7959 27.6021V27.93C47.5326 28.2348 47.4217 28.4796 47.4679 28.6505C47.4217 28.6505 47.4033 28.6413 47.4033 28.6182C47.4033 28.5997 47.3802 28.5859 47.3386 28.5859C47.2508 28.6736 47.2139 28.7706 47.237 28.8815C47.2601 28.9923 47.2508 29.0662 47.2046 29.1124L47.0753 28.9785C47.0291 29.0662 47.0107 29.1863 47.0107 29.3387C47.0107 29.4958 46.9645 29.6159 46.8767 29.699C46.8767 29.6574 46.8906 29.602 46.909 29.5374C46.9321 29.4727 46.9229 29.4404 46.8767 29.4404C46.8767 29.4819 46.8536 29.6159 46.812 29.833C46.7659 29.9623 46.7474 29.9623 46.7474 29.833C46.6596 29.833 46.6134 29.8745 46.6134 29.9623L46.6827 30.0962C46.6365 30.05 46.5811 30.0731 46.5164 30.1609C46.4518 30.2487 46.461 30.3133 46.5488 30.3549H46.4194C46.3733 30.4011 46.3963 30.4657 46.4841 30.5535V30.6828V30.6182C46.4425 30.5766 46.3963 30.5535 46.3548 30.5535C46.1331 31.0339 46.0268 31.3387 46.0268 31.4727C46.0268 31.4265 46.0037 31.408 45.9576 31.408H45.8929C45.8929 31.6251 45.8744 31.7359 45.8282 31.7359C45.8282 31.6482 45.8051 31.602 45.7636 31.602L45.371 32.7844C45.371 32.6505 45.3248 32.5858 45.237 32.5858C44.2347 34.6412 43.6666 35.7543 43.5327 35.9298C43.4449 36.1053 43.3387 36.2578 43.2047 36.3871C43.0754 36.4749 43.0292 36.4564 43.0754 36.3224C42.9876 36.4979 42.923 36.5857 42.8768 36.5857C43.0523 35.0569 43.4911 33.0662 44.1885 30.6182C44.8906 28.1702 45.3248 26.5767 45.5003 25.833C45.4587 25.6575 45.1308 25.5698 44.5165 25.5698C44.5165 25.7037 44.4287 25.8654 44.2532 26.064C44.0823 26.258 43.9945 26.4243 43.9945 26.5536C43.6851 26.7291 43.468 27.0986 43.3387 27.6667C43.5142 27.5836 43.6989 27.3757 43.8929 27.0478C44.0915 26.7199 44.2532 26.5305 44.3872 26.4889C44.2116 27.2326 43.9253 28.281 43.5327 29.6344C43.1401 30.9923 42.8214 32.2809 42.5812 33.5049C42.341 34.7289 42.2024 35.9529 42.1562 37.1769C42.2024 37.2185 42.2532 37.3062 42.3225 37.4356C42.3872 37.5695 42.4426 37.6573 42.4842 37.6988C42.5304 37.6988 42.6043 37.7312 42.7151 37.8005C42.8214 37.8651 42.923 37.8744 43.0107 37.8328C43.1863 37.745 43.3387 37.6111 43.468 37.4356C43.5973 37.2647 43.7313 37.0661 43.8606 36.849C43.9945 36.6273 44.1008 36.4564 44.1885 36.3224C45.8513 33.0015 47.0107 30.7706 47.6619 29.6344C48.8443 27.2326 50.2438 24.8492 51.8604 22.489C50.8997 25.3758 50.0914 28.1055 49.4355 30.6828C49.3894 30.7706 49.4125 30.8583 49.5002 30.9461Z" fill="#FA8CDA"/>
<path fill-rule="evenodd" clip-rule="evenodd" d="M56.2523 23.7363C56.2107 23.6901 56.22 23.6347 56.2846 23.57C56.3493 23.5053 56.3816 23.4499 56.3816 23.4083C56.34 23.4083 56.2754 23.473 56.1876 23.6023L56.123 23.8009C56.1645 24.152 55.9659 24.7617 55.5317 25.6346C55.444 26.0318 55.2038 26.7709 54.8112 27.8655C54.4186 28.9602 54.1738 29.787 54.0907 30.3551C53.6057 31.1449 53.3655 32.041 53.3655 33.0432C53.3239 33.0432 53.2778 33.0248 53.2362 32.9786C53.1484 33.4174 52.4925 36.8907 51.2686 43.4033C51.2686 43.5373 51.3147 43.6204 51.4025 43.6666C51.4903 43.7082 51.5965 43.7312 51.7304 43.7312C51.8598 43.7312 51.9475 43.7543 51.9891 43.7959C52.2986 42.9691 52.4925 42.1147 52.5803 41.2417C52.7974 40.9322 52.8667 40.6274 52.7789 40.3225C53.7396 37.1771 54.5017 34.8354 55.0699 33.3065C55.2454 32.9555 55.5548 32.2165 55.989 31.0802C56.4278 29.944 56.8296 28.9694 57.2038 28.1611C57.5733 27.3528 57.9566 26.6184 58.3492 25.9626C58.9174 24.9603 59.4439 24.152 59.9243 23.5377L60.4462 23.0157C60.5801 23.0573 60.6356 23.2328 60.6125 23.5377C60.5894 23.8425 60.534 24.0411 60.4462 24.1289C60.534 24.1704 60.5663 24.249 60.5478 24.3598C60.5247 24.4661 60.534 24.5446 60.5801 24.5861H60.4462C60.4046 24.6739 60.4046 24.7201 60.4462 24.7201H60.5155C60.5155 24.7617 60.4462 25.1774 60.3169 25.9626H60.1875L60.3169 26.0965C60.2291 26.3598 60.1644 26.4891 60.1183 26.4891C59.9889 27.8009 59.9243 28.5214 59.9243 28.6507H59.7257C59.8134 28.9602 59.8042 29.3759 59.6933 29.8978C59.5871 30.4244 59.5501 30.817 59.5963 31.0802C59.4208 31.4266 59.3977 31.907 59.5317 32.5213L59.467 32.4566C59.5086 32.6737 59.5086 32.9047 59.467 33.1449C59.4208 33.385 59.4439 33.5698 59.5317 33.6991H59.3977C59.5317 33.7869 59.5963 33.8746 59.5963 33.9624C59.5086 34.0086 59.4855 34.161 59.5317 34.4197C59.5317 34.5074 59.5086 34.5074 59.467 34.4197C59.5086 34.9462 59.5501 35.2972 59.5963 35.4728C59.6379 35.6437 59.7164 35.9393 59.8273 36.355C59.9335 36.7706 60.109 37.0339 60.3492 37.1448C60.5894 37.251 60.885 37.2649 61.236 37.1771C60.885 37.1771 60.6448 37.0108 60.5155 36.6829C60.3815 36.355 60.3076 35.8885 60.2845 35.2741C60.2614 34.6645 60.2291 34.2903 60.1875 34.161C60.2291 32.7615 60.4462 30.817 60.8434 28.3228C61.236 25.8332 61.4762 24.0827 61.564 23.0804C61.3884 22.3783 60.9312 22.0966 60.1875 22.2259C60.0998 22.5354 59.9658 22.6 59.7903 22.4245C59.7072 22.6416 59.5178 22.9141 59.2361 23.2421C58.9497 23.57 58.7649 23.8425 58.6772 24.0642C58.7234 24.0642 58.7557 24.0965 58.7742 24.1612C58.7973 24.2259 58.788 24.2813 58.7418 24.3275C58.6541 24.2397 58.5894 24.1935 58.5478 24.1935C58.2846 24.7617 58.1968 25.1127 58.2846 25.242C58.1968 25.2882 58.1322 25.2882 58.086 25.242C58.086 25.2004 58.0675 25.1774 58.0213 25.1774C58.0213 25.2235 57.9566 25.3529 57.8273 25.57C57.6934 25.7917 57.6056 25.9857 57.564 26.1612C57.564 26.0734 57.5409 26.0318 57.4994 26.0318C57.3654 26.3367 57.2777 26.4891 57.2361 26.4891L57.3654 26.6184V26.6877L57.2361 26.5538C57.2361 26.6 57.1252 26.7939 56.9082 27.145C56.6911 27.496 56.6033 27.7778 56.6449 27.9948C56.123 28.6507 55.8597 29.3528 55.8597 30.0964L55.7257 29.9625C55.7719 29.9625 55.795 29.9209 55.795 29.8331C55.795 29.7454 55.7719 29.6992 55.7257 29.6992C55.7257 29.787 55.6518 29.9856 55.4994 30.2904C55.347 30.5953 55.3147 30.817 55.3978 30.9463H55.2038V31.2742L55.1391 31.2096C55.1391 31.1634 55.116 31.1634 55.0699 31.2096C54.9405 31.6022 54.899 31.8423 54.9405 31.9301C54.899 31.9301 54.8759 31.9209 54.8759 31.8978C54.8759 31.8747 54.8528 31.8654 54.8112 31.8654C54.7234 32.1287 54.7004 32.3227 54.7465 32.4566H54.6126C54.6588 32.586 54.6126 32.7846 54.4833 33.0432C54.4371 33.2188 54.4371 33.3296 54.4833 33.3712C54.3955 33.3712 54.3493 33.4174 54.3493 33.5051V33.3065C54.3955 33.2188 54.3955 33.1772 54.3493 33.1772C54.3078 33.1772 54.2847 33.2095 54.2847 33.2742C54.2847 33.3388 54.2616 33.3712 54.22 33.3712V33.1772C54.22 33.0894 54.2431 33.0248 54.2847 32.9786C54.8528 30.7061 55.7488 28.0641 56.9728 25.048C57.0606 24.8725 57.1576 24.6647 57.2684 24.4245C57.3793 24.1843 57.4994 23.9118 57.6287 23.6023C57.758 23.2975 57.8689 23.0573 57.9566 22.8818C58.0444 22.6647 58.0028 22.4984 57.8273 22.3922C57.6518 22.2813 57.4532 22.2259 57.2361 22.2259H56.7788V22.7525H56.5802C56.5802 23.1866 56.4694 23.5146 56.2523 23.7363ZM54.3493 30.2257C54.22 30.2257 54.1553 30.138 54.1553 29.9625C54.2847 30.0964 54.3493 30.1842 54.3493 30.2257ZM54.22 34.0963C54.22 34.0502 54.1738 34.0271 54.0907 34.0271V33.6991C54.1738 33.6991 54.2292 33.7684 54.2523 33.8977C54.2754 34.0271 54.3078 34.0963 54.3493 34.0963H54.2847H54.22ZM53.8921 35.0755L53.9567 35.0109V34.8815L53.8274 35.0109V34.6829C54.1738 34.8584 54.1969 34.9924 53.8921 35.0755Z" fill="#FA8CDA"/>
<path fill-rule="evenodd" clip-rule="evenodd" d="M63.0705 32.258C62.9828 32.5213 62.9828 32.6968 63.0705 32.7845V32.258ZM62.9412 33.0432C62.9412 33.1309 62.9089 33.2649 62.8442 33.4404C62.7749 33.6113 62.7888 33.6991 62.8765 33.6991C62.8765 33.6113 62.895 33.5051 62.9412 33.3711C62.9828 33.2002 62.9828 33.0894 62.9412 33.0432ZM78.151 3.54265C77.9755 3.63041 77.9524 3.78283 78.0864 3.99992C78.0402 3.99992 77.9755 4.02301 77.8878 4.06458C77.7123 4.2401 77.6938 4.35095 77.8231 4.39252V4.26319L77.9524 4.13386C77.606 4.83131 77.1903 5.87978 76.71 7.27929C76.2296 8.6788 75.9201 9.51019 75.7908 9.76885C75.7908 9.99055 75.7123 10.2954 75.5599 10.688C75.4075 11.0806 75.3336 11.367 75.3336 11.5425H75.1996C75.1996 11.5841 75.2135 11.6302 75.2319 11.6718C75.255 11.7134 75.2643 11.7596 75.2643 11.8011C75.2227 11.8011 75.1765 11.7827 75.1349 11.7365C75.1765 11.912 75.158 12.0875 75.0703 12.263C74.9825 12.4385 74.9363 12.591 74.9363 12.7203C74.8948 12.6787 74.8532 12.6556 74.807 12.6556C74.807 12.785 74.7423 12.9512 74.6084 13.1452C74.4791 13.3438 74.4375 13.5286 74.4791 13.7041H74.3497C74.3036 13.7919 74.3036 13.8473 74.3497 13.8658C74.3913 13.8889 74.4144 13.9212 74.4144 13.9674L74.2851 14.0967V13.9674C74.2851 14.0089 74.262 14.0736 74.2158 14.1614C74.1742 14.2491 74.1742 14.3369 74.2158 14.4246H74.1511C74.0634 14.4246 74.0218 14.4477 74.0218 14.4893C74.0218 14.5355 74.0634 14.6002 74.1511 14.6879C74.2389 14.8172 74.2389 14.905 74.1511 14.9512L74.0865 14.8172L73.9571 14.6879C73.9571 14.905 73.911 14.9928 73.8232 14.9512C73.8232 15.0389 73.8555 15.1128 73.9202 15.1775C73.9895 15.2468 74.0218 15.2976 74.0218 15.3438C73.934 15.3438 73.8786 15.3115 73.8555 15.2468C73.837 15.1775 73.8001 15.1452 73.7585 15.1452V15.6071C73.7123 15.6071 73.6708 15.584 73.6292 15.5378C73.5414 15.7133 73.4953 15.9027 73.4953 16.0967V16.4569C73.4953 16.3276 73.4722 16.2629 73.4306 16.2629L73.3659 16.1937C73.3197 16.2398 73.3013 16.3276 73.3013 16.4569C73.3013 16.5909 73.2782 16.674 73.232 16.7202L73.1673 16.5909C73.1257 16.9835 72.9918 17.3761 72.7747 17.7687C72.7331 17.8149 72.7101 17.8795 72.7101 17.9673L72.7747 18.1613C72.7331 18.032 72.687 17.9673 72.6454 17.9673C72.5992 18.0966 72.59 18.249 72.6131 18.4246C72.6315 18.6001 72.6223 18.7109 72.5761 18.7525V18.6232C72.5761 18.5354 72.5576 18.4661 72.5114 18.4246L72.3175 19.0158C72.3175 18.928 72.2944 18.8818 72.2482 18.8818V19.473L72.1835 19.4084C72.1835 19.3622 72.165 19.3437 72.1188 19.3437C72.1188 19.473 72.0773 19.6255 71.9895 19.801C71.9018 19.9765 71.8556 20.1058 71.8556 20.1936H71.7909L71.7262 20.3275C71.7678 20.3691 71.7909 20.4245 71.7909 20.4892V20.7201C71.5276 20.8079 71.3983 21.1127 71.3983 21.6393C71.3105 21.6393 71.2459 21.6577 71.1997 21.7039L71.3336 21.8333C71.2874 21.8794 71.2459 21.8979 71.1997 21.8979H71.135C71.2228 22.2905 71.135 22.4891 70.8718 22.4891C70.8718 22.5353 70.8948 22.6 70.941 22.6877C70.9826 22.7755 70.9595 22.8402 70.8718 22.8817C70.8718 22.794 70.8533 22.7524 70.8071 22.7524C70.8533 22.8402 70.8625 22.9279 70.8394 23.0157C70.8209 23.1034 70.7424 23.1219 70.6131 23.0803C70.6547 23.1219 70.6778 23.2004 70.6778 23.3113V23.5376H70.5438C70.5438 23.5838 70.5346 23.6346 70.5115 23.7039C70.493 23.7686 70.4792 23.8425 70.4792 23.9302C70.3914 23.9302 70.3498 23.9533 70.3498 23.9995V24.0642C70.3914 24.1057 70.3914 24.1288 70.3498 24.1288C70.3498 24.0826 70.3267 24.0642 70.2852 24.0642C70.3267 24.1519 70.3267 24.272 70.2852 24.4244C70.239 24.5768 70.2621 24.6508 70.3498 24.6508H70.2159H70.0866V24.8494H69.9572C70.045 24.8494 70.0866 24.914 70.0866 25.048H69.8879C69.9757 25.048 70.0219 25.1126 70.0219 25.242V25.4406C69.9757 25.4406 69.911 25.3944 69.8233 25.3066C69.7817 25.3066 69.7678 25.3621 69.7909 25.4729C69.814 25.5838 69.8233 25.6577 69.8233 25.7038C69.7817 25.6577 69.7355 25.6346 69.6939 25.6346C69.7355 25.7685 69.6709 25.9209 69.4953 26.0964C69.5415 26.272 69.463 26.5121 69.269 26.817C69.0704 27.1218 68.9919 27.4082 69.0381 27.6669C68.9919 27.6669 68.9734 27.6345 68.9734 27.5699C68.9734 27.5052 68.9503 27.4729 68.9087 27.4729V27.9301C68.821 27.8886 68.7425 27.9532 68.6778 28.1287C68.6131 28.3043 68.5577 28.392 68.5115 28.392V27.8008C68.5115 27.496 68.5023 27.265 68.4792 27.1126C68.4607 26.9602 68.4145 26.7708 68.3499 26.5537C68.2852 26.3366 68.1743 26.1519 68.0219 25.9948C67.8695 25.8424 67.6848 25.7454 67.463 25.7038C66.5901 25.6161 65.8695 25.8563 65.3014 26.4244C65.343 26.466 65.3245 26.5768 65.2368 26.7523C65.149 26.9278 65.0613 27.0341 64.9735 27.0803C64.9735 27.0341 65.0058 26.9694 65.0705 26.8817C65.1352 26.7939 65.1813 26.7292 65.2044 26.6877C65.2229 26.6415 65.2137 26.5999 65.1675 26.5537C65.1259 26.5999 65.0705 26.6877 65.0058 26.817C64.9412 26.9463 64.8857 27.0341 64.8395 27.0803L64.9735 27.2096L64.9088 27.2743L64.8395 27.3389C64.8395 27.2558 64.8211 27.2096 64.7749 27.2096C64.7333 27.2558 64.7102 27.4082 64.7102 27.6669L64.6456 27.6022C64.6456 27.5606 64.6225 27.5606 64.5809 27.6022C64.5809 27.6484 64.5486 27.7038 64.4793 27.7685C64.4146 27.8331 64.4054 27.8886 64.4469 27.9301L64.5809 27.8655C64.5347 27.8655 64.5162 27.8886 64.5162 27.9301L64.4469 28.0641C64.3592 28.0641 64.2714 28.1934 64.1883 28.4567C64.2299 28.4567 64.2714 28.4105 64.3176 28.3227L64.3823 28.1287C64.3407 28.3043 64.253 28.5444 64.119 28.8493C63.9897 29.1541 63.925 29.3296 63.925 29.3758C64.0543 29.2003 64.253 28.8031 64.5162 28.1934C64.7749 27.5837 65.0382 27.168 65.3014 26.9463C63.9435 29.2188 63.1167 31.9531 62.8073 35.1448C62.7657 35.0108 62.7657 34.7937 62.8073 34.4889C62.8534 34.1794 62.8534 33.9854 62.8073 33.8977C62.7657 34.027 62.7426 34.2995 62.7426 34.7152C62.7426 35.1309 62.7241 35.4034 62.6779 35.5374C62.7241 35.5374 62.7657 35.6667 62.8073 35.93C62.7657 35.93 62.7426 35.8745 62.7426 35.7637C62.7426 35.6574 62.7241 35.602 62.6779 35.602C62.5902 36.0408 62.6779 36.4426 62.9412 36.8168C63.2045 37.1863 63.574 37.3295 64.0543 37.2417C64.9735 36.8907 65.7356 36.1701 66.3499 35.0755C66.6132 34.9461 66.7656 34.7291 66.8072 34.4196C66.8534 34.378 67.1813 33.7452 67.791 32.5213C69.1027 29.6807 70.4792 26.2027 71.9202 22.0965C72.008 21.9672 72.1188 21.7132 72.2482 21.3437C72.3821 20.9695 72.493 20.7201 72.5761 20.5862C72.8856 19.4499 73.4537 17.9673 74.2851 16.129C74.0218 17.3114 73.7354 18.6878 73.4306 20.2582C73.4306 20.3044 73.4537 20.3275 73.4953 20.3275C73.583 20.3691 73.6061 20.4338 73.5599 20.5215C73.5183 20.5215 73.4953 20.5123 73.4953 20.4892C73.4953 20.4661 73.4722 20.4568 73.4306 20.4568C73.4306 20.6324 73.4537 20.7201 73.4953 20.7201L73.6292 20.5862C73.4953 20.7201 73.4075 20.7848 73.3659 20.7848C72.8394 25.0664 72.5761 27.5837 72.5761 28.3227C72.493 28.4105 72.4468 28.5999 72.4468 28.8816C72.4468 29.168 72.4237 29.3527 72.3821 29.4405C72.3821 29.8331 72.3267 30.5952 72.2158 31.7361C72.1096 32.8723 72.0957 33.7452 72.1835 34.3549C72.1419 34.7475 72.0542 36.4334 71.9202 39.4033C71.9202 39.4495 71.9664 39.468 72.0542 39.468L72.1188 39.5373C72.0773 39.5788 72.0311 39.5927 71.9895 39.5696C71.9433 39.5465 71.9018 39.5373 71.8556 39.5373C71.9018 40.147 71.8787 41.1077 71.7909 42.4194C71.8787 42.4194 71.9202 42.4425 71.9202 42.4841C71.7031 43.0522 71.7262 43.4679 71.9895 43.7312C71.9018 43.8189 71.8371 43.8651 71.7909 43.8651C71.8371 44.0822 71.8556 44.4517 71.8556 44.9783C71.8556 45.5002 71.9018 45.8974 71.9895 46.1561H71.8556C71.8556 46.2023 71.8694 46.2669 71.8879 46.3547C71.911 46.4424 71.9433 46.5071 71.9895 46.5533C71.8556 46.9459 71.9202 47.5787 72.1835 48.4516C72.0957 48.5394 72.0773 48.5856 72.1188 48.5856H72.1835C72.1835 48.7149 72.2158 48.9228 72.2851 49.2045C72.3498 49.4909 72.359 49.6756 72.3175 49.7634H72.4468C72.4052 49.9805 72.6223 50.4608 73.1027 51.2045C74.1511 51.7726 74.8301 51.3153 75.1349 49.828C75.0934 49.828 75.0472 49.8511 75.0056 49.8927C75.0056 49.7634 74.9594 49.7403 74.8717 49.828L74.9363 49.7634C74.9825 49.6756 74.9825 49.611 74.9363 49.5648C74.5437 50.3546 74.2158 50.835 73.9571 51.0105C73.7816 50.9227 73.6153 50.738 73.4629 50.4516C73.3105 50.1698 73.2135 50.0036 73.1673 49.962C72.9918 49.0844 72.8163 47.9066 72.6454 46.4193C72.6454 46.1145 72.6223 45.4032 72.5761 44.2901C72.5345 43.1723 72.5576 42.3317 72.6454 41.7636C72.5992 40.7151 72.6223 39.1308 72.7101 37.0108C72.7978 34.8907 72.8394 33.482 72.8394 32.7845C72.8856 32.7845 72.904 32.7614 72.904 32.7152C72.904 32.6737 72.9271 32.6506 72.9733 32.6506C73.0149 32.5628 73.0149 32.4751 72.9733 32.3873C72.9271 32.3042 72.904 32.2349 72.904 32.1933C72.9502 32.1933 72.9733 32.2164 72.9733 32.258C72.9733 32.1702 72.9918 31.9208 73.038 31.5051C73.0796 31.0894 73.0796 30.84 73.038 30.7522C73.6477 25.2882 73.9987 22.3598 74.0865 21.9672H74.0218C74.0634 21.8794 74.0957 21.7224 74.1188 21.5053C74.1419 21.2882 74.1973 21.1127 74.2851 20.9834C74.2389 20.8956 74.2712 20.6739 74.3821 20.3275C74.4883 19.9765 74.5022 19.7363 74.4144 19.607L74.4791 19.6716H74.5437L74.6084 19.2098C74.6546 18.9049 74.6315 18.7525 74.5437 18.7525C74.6315 18.7525 74.6777 18.7756 74.6777 18.8172C74.6777 18.4661 74.7747 17.9442 74.9733 17.2467C75.1673 16.5447 75.2643 15.9766 75.2643 15.5378C75.3105 15.5378 75.3336 15.5609 75.3336 15.6071C76.2943 11.6718 77.3658 8.43862 78.5436 5.90288V6.03221C78.6314 5.94445 78.6776 5.82436 78.6776 5.67194C78.6776 5.51951 78.6961 5.42252 78.7423 5.37633C78.7423 5.46409 78.7607 5.52875 78.8069 5.57494C78.8485 5.48718 78.8947 5.37633 78.9363 5.247C78.9824 5.11767 79.0055 5.00682 79.0055 4.91906L79.2642 4.59113L79.3981 4.52646C79.4397 4.48028 79.4397 4.47104 79.3981 4.49413C79.3519 4.51261 79.3289 4.50337 79.3289 4.4618C79.375 4.32785 79.4536 4.22162 79.5598 4.13386C79.6706 4.0461 79.7261 3.97682 79.7261 3.93525C79.6799 3.93525 79.6568 3.95835 79.6568 3.99992C79.6568 4.0461 79.6152 4.06458 79.5275 4.06458L79.8554 3.4087C79.8554 3.45489 79.8323 3.51956 79.7907 3.60731C79.7445 3.6535 79.7676 3.69507 79.8554 3.73664C80.6868 1.99072 81.278 0.919149 81.6244 0.526548C81.6244 0.175516 81.1672 0 80.248 0C80.1187 0.175516 79.9108 0.461884 79.6245 0.854485C79.3427 1.24709 79.1118 1.58426 78.9363 1.87063C78.7607 2.15238 78.6083 2.47108 78.479 2.82211L78.6083 2.75745H78.6776C78.6776 2.79902 78.6314 2.86368 78.5436 2.95144C78.5021 2.99763 78.479 3.06229 78.479 3.15005C78.3035 3.23781 78.2157 3.30247 78.2157 3.34404C78.2619 3.39023 78.2942 3.39023 78.3127 3.34404C78.3358 3.30247 78.3681 3.30247 78.4143 3.34404C78.3266 3.39023 78.2711 3.47799 78.248 3.60731C78.2296 3.73664 78.1741 3.8244 78.0864 3.87059C78.0864 3.8244 78.1095 3.73664 78.151 3.60731V3.54265ZM65.7587 34.6829C65.149 35.6436 64.4285 36.3687 63.5971 36.8491C63.2045 35.7544 63.246 34.2672 63.7264 32.3873C63.9435 31.4266 64.4054 30.2026 65.1028 28.7199C65.8926 27.2327 66.567 26.3782 67.1351 26.1611H67.1998C67.463 26.4244 67.6155 26.7708 67.6617 27.2096C67.7494 28.8724 67.6617 30.2488 67.3984 31.3388C67.3568 31.4728 67.2783 31.6483 67.1674 31.8654C67.0612 32.0825 66.9827 32.258 66.9411 32.3873C66.7194 32.9139 66.3268 33.6806 65.7587 34.6829ZM72.904 28.0641C72.8163 27.9301 72.7331 27.6899 72.6454 27.3389C72.687 27.3851 72.7747 27.6253 72.904 28.0641ZM72.5761 30.2257C72.493 30.2257 72.4699 30.1148 72.5114 29.8978C72.5576 29.9439 72.5576 30.0086 72.5114 30.0964C72.4699 30.1841 72.493 30.2257 72.5761 30.2257ZM72.2482 35.3387C72.165 35.2972 72.1419 35.2094 72.1835 35.0755C72.2297 34.9461 72.2297 34.8584 72.1835 34.8168C72.2713 34.8168 72.3036 34.8907 72.2851 35.0431C72.262 35.1956 72.2482 35.2972 72.2482 35.3387ZM62.8765 36.3872C62.8304 36.3872 62.798 36.3457 62.7749 36.2579C62.7564 36.1701 62.7657 36.1055 62.8073 36.0593C62.8534 36.1055 62.8765 36.2117 62.8765 36.3872ZM72.1188 37.7636V37.371L72.1835 37.505C72.1835 37.5466 72.2066 37.5696 72.2482 37.5696C72.2482 37.6112 72.2158 37.6343 72.1512 37.6343C72.0865 37.6343 72.0773 37.6759 72.1188 37.7636ZM63.1352 32.1933C63.223 31.8885 63.4631 31.0802 63.8604 29.7684C63.7726 29.81 63.7172 29.8885 63.6941 29.9947C63.671 30.1056 63.6386 30.161 63.5971 30.161C63.5971 30.3781 63.5093 30.7199 63.3338 31.1772C63.1583 31.6344 63.0936 31.9762 63.1352 32.1933Z" fill="#FA8CDA"/>
<path fill-rule="evenodd" clip-rule="evenodd" d="M81.2961 26.0965C81.0375 25.9209 80.6633 25.7916 80.183 25.7039C80.1414 25.8332 79.9844 25.9764 79.7257 26.1288C79.4624 26.2812 79.31 26.3782 79.2638 26.4244C78.0398 27.3389 77.0791 28.8031 76.3817 30.8169C76.0722 31.034 75.7674 31.0894 75.4625 30.9786C75.1577 30.8723 74.936 30.6645 74.8066 30.355C74.8066 31.2326 75.2639 31.713 76.1831 31.8007C76.0075 33.2418 76.2061 34.161 76.7743 34.5536C77.6934 35.251 78.9174 35.0755 80.4462 34.027C80.9682 33.6806 81.3654 33.3711 81.6241 33.1125C81.8458 32.937 82.0628 32.7384 82.2799 32.5213C82.5016 32.3042 82.751 32.0409 83.0328 31.7361C83.3192 31.4266 83.527 31.2095 83.6563 31.0802C84.0536 30.7292 84.5755 30.2026 85.2314 29.5052C85.8872 28.8031 86.3907 28.3043 86.7371 27.9948C86.7371 27.9532 86.7602 27.8978 86.8064 27.8331C86.848 27.7685 86.8711 27.7131 86.8711 27.6669C87.1343 27.5837 87.3837 27.3759 87.6239 27.0479C87.8641 26.72 88.072 26.5122 88.2475 26.4244C88.0304 26.466 87.7348 26.6184 87.3607 26.8817C86.9911 27.1449 86.7602 27.2974 86.6724 27.3389C86.4969 27.6484 86.1043 28.0318 85.4946 28.489C84.8803 28.9463 84.4877 29.3758 84.3122 29.7684C84.1367 29.6807 84.0536 29.6807 84.0536 29.7684C83.6563 30.2904 83.0005 30.937 82.0859 31.6991C81.1668 32.4658 80.5525 33.0247 80.2476 33.3711C80.1599 33.3711 79.758 33.5605 79.0375 33.93C78.3123 34.2995 77.6472 34.4196 77.0375 34.2903C76.7281 33.8099 76.6865 32.9139 76.9036 31.6021C76.9498 31.6021 77.2131 31.4081 77.6934 31.0109C78.1738 30.6183 78.5017 30.3458 78.6772 30.1934C78.8481 30.0409 79.1253 29.8008 79.4948 29.4728C79.8643 29.1449 80.1599 28.8493 80.3816 28.586C80.5987 28.3227 80.7742 28.041 80.9035 27.7361C81.2961 26.9463 81.4301 26.4013 81.2961 26.0965ZM80.4462 26.5537C80.4878 26.7708 80.3816 27.0341 80.1183 27.3389C79.855 27.6484 79.7026 27.8424 79.6564 27.9301H79.5271C79.31 28.1934 78.9821 28.5306 78.5433 28.9463C78.1091 29.362 77.8227 29.6576 77.6934 29.8331C78.0398 28.7846 78.959 27.69 80.4462 26.5537Z" fill="#FA8CDA"/>
<path fill-rule="evenodd" clip-rule="evenodd" d="M88.0487 29.2419C88.0949 29.3296 88.0487 29.5791 87.9194 29.9947C87.79 30.4104 87.7208 30.683 87.7208 30.8169L87.6561 30.683C87.5683 31.4266 87.4621 31.9947 87.3282 32.3873C87.3282 31.5143 87.5268 30.1379 87.9194 28.2581C88.0071 27.8655 88.4875 25.8332 89.3605 22.1612C89.3605 22.0734 89.439 21.8471 89.5914 21.473C89.7438 21.1035 89.7992 20.8725 89.7531 20.7848C89.7531 20.6555 89.7023 20.5446 89.5914 20.4568C89.4805 20.3691 89.3835 20.3275 89.2958 20.3275C89.208 20.3275 89.0648 20.3368 88.8709 20.3598C88.6722 20.3783 88.5522 20.3922 88.5106 20.3922C86.7185 27.5144 85.7762 33.9623 85.6885 39.7313C85.9979 40.17 86.3028 40.364 86.6076 40.3225C86.737 39.8837 87.1526 37.6343 87.8547 33.5697C88.6861 29.6807 89.5822 26.8401 90.5429 25.048C90.6306 24.8263 90.9355 24.4106 91.4574 23.8009C91.6791 24.1935 91.8962 24.8817 92.1133 25.8655C92.335 26.8493 92.6167 27.6576 92.9678 28.2904C93.3188 28.9278 93.8223 29.2419 94.4735 29.2419C94.4735 29.2003 94.552 29.1772 94.7045 29.1772C94.8569 29.1772 94.9585 29.131 95.0001 29.0479C94.9585 29.0479 94.8153 29.0571 94.5751 29.0802C94.3349 29.0987 94.1918 29.0895 94.1456 29.0479C93.7114 28.3458 93.4066 27.5837 93.231 26.7523C93.1849 26.5768 93.1294 26.272 93.0648 25.8332C93.0001 25.3944 92.9447 25.0803 92.9031 24.8817C92.8569 24.6877 92.7692 24.4337 92.6398 24.1288C92.5105 23.824 92.3766 23.6023 92.2472 23.4729C92.1133 23.3436 91.9193 23.2328 91.656 23.145C91.3927 23.0572 91.111 23.0342 90.8062 23.0803C90.6306 23.2559 90.3443 23.69 89.9517 24.3921C89.9517 24.2581 89.9286 24.1935 89.887 24.1935C89.8408 24.5445 89.7438 24.8586 89.5914 25.145C89.439 25.4267 89.342 25.7038 89.2958 25.9625C89.2958 25.9209 89.2727 25.8747 89.2311 25.8332C89.2311 26.0087 89.1849 26.2027 89.0972 26.4244C89.014 26.6415 88.9679 26.7939 88.9679 26.8816C88.9263 26.8816 88.9124 26.8401 88.9355 26.7523C88.9586 26.6646 88.9448 26.6184 88.9032 26.6184C88.7739 27.2327 88.5983 27.7777 88.3766 28.2581H88.5106C88.4228 28.3458 88.3443 28.5213 88.2796 28.7846C88.215 29.0479 88.1365 29.2003 88.0487 29.2419Z" fill="#FA8CDA"/>
</svg>
