<?xml version="1.0" encoding="UTF-8"?>
<!DOCTYPE svg PUBLIC "-//W3C//DTD SVG 1.1//EN" "http://www.w3.org/Graphics/SVG/1.1/DTD/svg11.dtd">
<!-- Creator: CorelDRAW X7 -->
<svg xmlns="http://www.w3.org/2000/svg" xml:space="preserve" width="297mm" height="210mm" version="1.1" style="shape-rendering:geometricPrecision; text-rendering:geometricPrecision; image-rendering:optimizeQuality; fill-rule:evenodd; clip-rule:evenodd"
viewBox="0 0 29700 21000"
 xmlns:xlink="http://www.w3.org/1999/xlink">
 <defs>
  <style type="text/css">
   <![CDATA[
    .fil0 {fill:#FA8CDA}
   ]]>
  </style>
 </defs>
 <g id="Layer_x0020_1">
  <metadata id="CorelCorpID_0Corel-Layer"/>
  <g id="_2499674018816">
   <path class="fil0" d="M16049 6015c19,9 38,28 57,56l29 29c0,-19 -12,-41 -36,-64 -24,-24 -40,-31 -50,-21zm-6501 1036l-28 14c-47,9 -62,24 -43,42 0,-9 12,-16 36,-21 23,-5 35,-16 35,-35zm-610 284c9,9 21,9 35,0 15,-10 22,-19 22,-29 -10,-9 -22,-9 -36,0 -14,10 -21,19 -21,29zm1249 127c0,10 -9,22 -28,36 -19,14 -29,26 -29,35 57,-28 76,-52 57,-71zm256 1037c0,18 -8,45 -22,78 -14,33 -16,59 -7,78 29,-95 38,-147 29,-156zm-57 184c0,19 -7,45 -21,78 -15,33 -17,59 -8,78 29,-94 38,-146 29,-156zm-57 213c0,19 -12,57 -35,114 -24,56 -31,99 -22,127 0,-9 12,-45 36,-106 23,-62 30,-107 21,-135zm-270 937l0 28c-19,38 -23,62 -14,71l14 -57c10,-28 10,-42 0,-42zm-5053 71c-38,0 -57,9 -57,28 48,-9 67,-19 57,-28zm3080 113c-9,-9 -40,-21 -92,-35 -52,-14 -88,-17 -106,-7 37,9 104,23 198,42zm1931 -28c-10,9 -14,26 -14,50 0,23 4,35 14,35l0 -85zm-57 199l0 85 0 -85zm-28 99c0,10 -3,24 -8,43 -4,19 -7,33 -7,42 0,10 5,19 15,29 0,-10 2,-24 7,-43 4,-19 7,-33 7,-43 0,-9 -5,-18 -14,-28zm-157 838l0 85c0,-10 5,-29 15,-57 9,-10 4,-19 -15,-28zm-411 1845l0 57c-10,19 -10,28 0,28 38,-38 38,-66 0,-85zm0 113c-10,10 -17,24 -22,43 -4,19 -2,33 8,43l0 -29c19,-28 23,-47 14,-57zm213 71c0,48 4,76 14,86 0,-48 -5,-76 -14,-86zm-14 341c0,10 -3,21 -8,36 -4,14 -7,30 -7,49 19,0 29,-12 29,-35 0,-24 -5,-40 -14,-50zm-43 483c0,19 -5,49 -14,92 -10,43 -5,69 14,78 0,-9 2,-38 7,-85 5,-47 2,-76 -7,-85zm-71 511c0,75 5,113 14,113 -9,-19 -9,-40 0,-64 10,-23 5,-40 -14,-49zm-71 454c19,-10 28,-81 28,-213 -9,28 -14,66 -14,114 0,47 -5,80 -14,99zm-28 170c9,-19 19,-47 28,-85 9,-38 5,-57 -14,-57 0,10 -5,31 -14,64 -10,33 -10,59 0,78zm-256 -71c-19,-9 -31,-2 -35,22 -5,23 -3,40 7,49 0,-9 4,-23 14,-42 0,-10 5,-19 14,-29zm-71 14c0,10 -5,29 -14,57 -10,29 -14,52 -14,71 19,-9 33,-31 42,-64 10,-33 5,-54 -14,-64zm-57 639l29 -42 -14 -71c-10,28 -15,66 -15,113zm0 14c10,29 12,52 7,71 -4,19 -7,38 -7,57 0,19 10,33 29,43 -10,-19 -12,-48 -7,-85 4,-38 -3,-67 -22,-86zm483 -3151c9,10 9,24 0,43l0 14c9,0 14,-5 14,-14 0,76 -16,201 -50,376 -33,175 -49,305 -49,390l-29 0c-9,48 -26,166 -49,355 -24,189 -55,336 -93,440 10,48 10,107 0,178 -9,71 -23,116 -42,134 28,152 9,322 -57,512 19,0 28,4 28,14 -18,28 -28,66 -28,113 0,48 -2,88 -7,121 -5,33 -21,50 -50,50 0,9 7,37 22,85 14,47 11,71 -7,71 0,-19 -5,-29 -15,-29 -19,67 -28,156 -28,270 0,114 -5,194 -14,241 0,-9 -14,-28 -43,-56 0,18 7,40 21,63 15,24 22,41 22,50l14 0 14 -14c19,38 29,71 29,99 28,19 85,29 170,29 66,-104 123,-218 170,-341 47,-123 85,-234 114,-334 28,-99 57,-229 85,-390 28,-161 47,-281 57,-362 9,-80 26,-218 49,-412 24,-194 41,-324 50,-390 38,-473 57,-861 57,-1164 -19,-492 -19,-785 0,-880 104,-388 331,-1235 681,-2541l213 -638c95,-284 170,-516 227,-696 57,-180 118,-395 185,-646 66,-251 123,-480 170,-688 1315,-455 2385,-686 3208,-696 123,-28 246,-28 369,0 558,-19 989,100 1292,355 9,-9 9,-19 0,-28 -10,-10 -5,-15 14,-15 -57,-123 -237,-255 -539,-397 0,19 -5,28 -15,28 0,-19 -9,-37 -28,-56 -587,-152 -1538,-86 -2853,198 0,-9 5,-19 14,-28l0 -14c-19,0 -28,9 -28,28 0,19 -10,29 -29,29 -75,18 -525,146 -1348,383 -47,-199 -147,-294 -298,-284 -114,0 -199,85 -256,255 10,-19 24,-23 43,-14 -10,0 -19,10 -29,29l-14 28c0,-28 -9,-43 -28,-43 0,10 -7,26 -21,50 -15,24 -22,50 -22,78 10,0 19,-9 29,-28 0,-19 9,-33 28,-43 0,19 -7,38 -21,57 -14,19 -29,43 -43,71 -14,28 -26,47 -35,57 0,-10 7,-29 21,-57 14,-28 17,-47 7,-57l-42 85c-19,38 -38,67 -57,85 0,-18 -10,-28 -29,-28l15 28c9,10 4,15 -15,15 -9,0 -14,-7 -14,-22 0,-14 -9,-21 -28,-21 19,47 4,71 -43,71 0,-28 -9,-43 -28,-43 9,19 9,34 0,43 -10,10 -19,10 -29,0l15 -28c-19,0 -29,9 -29,28 0,19 -5,28 -14,28 -38,10 -121,43 -248,100 -128,57 -230,90 -306,99 0,29 -4,38 -14,29l-14 0 0 -15 0 -14 -14 0c-10,0 -24,14 -43,43 -9,28 -23,38 -42,28l0 -42c-29,47 -93,89 -192,127 -99,38 -154,62 -163,71 0,-28 -5,-42 -14,-42 -10,0 -15,9 -15,28 0,19 -4,33 -14,43 -28,0 -73,16 -135,49 -61,33 -116,41 -163,22l0 28 0 28c-19,0 -40,12 -64,36 -23,24 -45,31 -64,21 -9,-19 -4,-28 15,-28l14 0c-19,-19 -33,-14 -43,14 -9,28 -19,43 -28,43 -10,0 -10,-10 0,-29l0 -14c-19,0 -29,9 -29,28 0,19 -4,29 -14,29 -9,0 -19,-3 -28,-7 -10,-5 -19,-7 -29,-7 -19,0 -26,9 -21,28 5,19 2,28 -7,28 -9,0 -17,-7 -21,-21 -5,-14 -12,-16 -22,-7l0 28 15 15c-67,18 -104,23 -114,14 -9,38 -42,66 -99,85l-85 43 -15 -15 -14 0c0,29 -19,50 -57,64 -37,14 -61,12 -71,-7l0 43c-28,38 -42,38 -42,0l14 -15c9,0 9,-4 0,-14 -19,0 -38,19 -57,57l-14 -14c-9,19 -24,19 -43,0 0,9 5,19 15,28l0 14c-29,10 -59,24 -93,43 -33,19 -63,33 -92,43 -28,9 -57,9 -85,0 -28,66 -76,104 -142,113 9,-9 14,-19 14,-28 -19,-10 -28,-3 -28,21 0,24 -5,36 -14,36 0,-19 -5,-29 -15,-29 0,29 -4,47 -14,57 -9,0 -23,-5 -42,-14 -19,-10 -33,-10 -43,0 10,19 0,38 -28,57l0 -29c-19,-9 -36,-5 -50,14 -14,19 -31,29 -50,29 -9,9 -12,21 -7,35 5,14 -2,22 -21,22 -10,9 -19,9 -28,0 -10,-10 -19,-15 -29,-15l0 29c0,19 -5,28 -14,28 -10,0 -14,-5 -14,-14 0,-10 -5,-14 -14,-14l0 14c9,9 9,14 0,14 -10,0 -15,-5 -15,-14 0,-10 -4,-14 -14,-14 -9,19 -9,38 0,56 -57,29 -90,48 -99,57 0,-28 -10,-38 -29,-28 10,19 10,31 0,35 -9,5 -18,-2 -28,-21l0 43c-9,9 -19,9 -28,0l0 -29 0 43 -15 -14 -28 0 -14 28c0,19 -5,28 -14,28l-15 0c-18,10 -33,10 -42,0 0,29 -10,43 -28,43 0,-9 -10,-24 -29,-43 -9,19 -7,34 7,43 14,9 17,19 7,28 -9,-9 -23,-9 -42,0 -19,10 -29,5 -29,-14 -9,0 -11,10 -7,29 5,19 3,28 -7,28l-14 0c-10,-19 -33,-19 -71,0 -38,19 -62,28 -71,28l0 57 -28 -28 0 42c-10,-9 -19,-7 -29,7 -9,15 -19,22 -28,22 0,-19 -5,-29 -14,-29 -10,19 -19,33 -29,43 -19,0 -28,5 -28,14l-14 0c0,-9 -5,-14 -15,-14 0,19 -4,33 -14,43 -9,-10 -23,-12 -42,-8 -19,5 -29,3 -29,-7l0 43c-9,38 -28,42 -56,14 9,38 0,57 -29,57 0,-29 -5,-43 -14,-43 0,10 2,22 7,36 5,14 2,21 -7,21 0,-9 -12,-7 -36,7 -23,14 -44,12 -63,-7l0 57c-10,0 -31,9 -64,28 -33,19 -59,33 -78,43 -19,9 -43,9 -71,0 0,57 -19,71 -57,42 -10,48 -47,71 -114,71l15 15 0 14c-29,-10 -57,0 -86,28 -28,29 -52,38 -71,29 0,66 -23,85 -71,56l0 15c10,9 10,14 0,14l-14 0 -14 -14c-19,28 -38,37 -57,28l0 42 0 -14c-9,-9 -19,-14 -28,-14 0,28 -5,43 -14,43 -29,0 -59,9 -93,28 -33,19 -66,45 -99,78 -33,33 -59,55 -78,64 -28,-9 -57,2 -85,36 -29,33 -52,44 -71,35 -29,28 -102,88 -220,177 -118,90 -201,164 -249,220 0,-18 22,-45 64,-78 43,-33 55,-59 36,-78l-29 29c-9,19 -23,23 -42,14 9,28 9,47 0,57 -10,9 -22,19 -36,28 -14,10 -21,24 -21,43 0,9 7,16 21,21 14,5 22,12 22,21 9,114 85,178 227,192 142,14 260,7 355,-21 1059,-105 1736,-166 2029,-185 10,0 228,14 653,43 -47,-10 -130,-24 -248,-43 -118,-19 -196,-38 -234,-57 19,0 71,7 156,22 85,14 142,16 170,7 -94,-29 -246,-52 -454,-71 -208,-19 -364,-48 -468,-86 0,19 11,34 35,43 24,10 40,19 50,28 -19,0 -114,-2 -284,-7 -170,-4 -260,7 -270,36 -19,-38 -85,-33 -199,14l0 -28c-75,19 -123,33 -142,42 0,-9 3,-14 8,-14 4,0 7,-5 7,-14 -123,28 -308,52 -554,71 -246,19 -421,38 -525,57l0 -43 -85 0c113,-95 236,-189 369,-284 132,-94 253,-180 362,-255 109,-76 246,-164 411,-263 166,-99 294,-177 384,-234 90,-57 231,-140 425,-249 194,-108 327,-182 398,-220 71,-37 218,-113 440,-227 222,-113 360,-184 412,-213 52,-28 201,-104 447,-227 246,-123 383,-194 411,-213 76,-28 310,-125 703,-291 393,-165 688,-286 887,-362 -28,76 -76,175 -142,298 -66,123 -113,218 -142,284 38,-37 81,-106 128,-205 47,-100 80,-168 99,-206 0,19 -4,40 -14,64 -9,23 -9,45 0,63 -9,-9 -28,0 -57,29 10,9 0,57 -28,142 19,-10 33,-14 43,-14 -48,47 -52,75 -15,85l15 -14c0,-19 4,-29 14,-29l14 29c0,-19 12,-34 35,-43 24,-9 41,-24 50,-43l29 57c18,-38 78,-132 177,-284 99,-151 168,-274 206,-369 9,0 23,-4 42,-14 19,-19 34,-24 43,-14 -38,180 -106,426 -206,738 -99,312 -163,539 -191,681 56,-198 151,-487 283,-866 10,-37 24,-97 43,-177 19,-80 38,-151 57,-213 19,-61 42,-121 71,-177 -19,113 -62,286 -128,518 -66,232 -114,409 -142,532l-43 0c0,104 -42,260 -127,468l-14 0c0,67 -53,256 -157,568l0 -57c-19,152 -52,265 -99,341l0 50c0,23 5,35 14,35 -9,0 -16,7 -21,22 -5,14 -12,16 -21,7 9,19 -15,94 -71,227 9,19 -5,71 -43,156l28 -28c0,37 -14,97 -42,177 -29,80 -38,140 -29,177 -18,-9 -28,-4 -28,15 0,19 -5,28 -14,28l0 -28 -14 0c19,28 19,71 0,127 -10,38 -24,52 -43,43 19,38 14,85 -14,142 -28,57 -38,99 -28,128l-29 0 -14 28c0,19 5,28 14,28 0,-18 5,-28 14,-28 -19,133 -56,289 -113,468 -38,10 -43,29 -14,57 0,-28 4,-38 14,-28l0 14c-10,19 -14,33 -14,43 -19,-19 -29,-15 -29,14l29 0c0,9 -5,23 -15,42 0,29 -4,43 -14,43l0 -57c-9,0 -19,12 -28,36 -10,23 -10,40 0,49 19,-19 38,-23 57,-14 -29,29 -48,76 -57,142 -10,66 -24,114 -43,142 -9,-9 -23,-5 -42,14 0,19 7,24 21,14 14,-9 21,-9 21,0 0,19 -12,36 -35,50 -24,14 -31,31 -22,50l15 14 14 14c-38,66 -57,152 -57,256 -28,-114 -43,-175 -43,-185 -9,0 -18,-21 -28,-64 -9,-42 -9,-68 0,-78 0,10 -9,14 -28,14 -199,-558 -483,-927 -852,-1107l0 14c-246,-151 -449,-250 -610,-298 38,57 90,76 156,57 700,294 1126,904 1277,1831 -9,19 -16,62 -21,128 -5,66 -17,114 -35,142 18,0 28,17 28,50 0,33 5,49 14,49l0 -42c0,-19 5,-29 14,-29 -28,-9 -33,-47 -14,-113 19,-66 24,-109 14,-128 19,28 26,78 22,149 -5,71 -3,116 7,135 -29,28 -48,87 -57,177 -10,90 -24,149 -43,178l-14 -29c0,-9 -5,-14 -14,-14zm1065 -5649l14 -14 0 -43c19,19 28,38 28,57 -9,-10 -19,-14 -28,-14l-14 14zm-3223 2938c-19,19 -75,19 -170,0l170 0zm1576 554c-57,0 -95,-29 -114,-86 19,10 41,24 64,43 24,19 41,33 50,43zm568 3151c-10,-57 -3,-135 21,-234 24,-100 36,-168 36,-206l0 28c-10,29 -10,52 0,71 18,-47 40,-123 63,-227 24,-104 36,-161 36,-170 9,-10 14,4 14,42 19,-9 26,-23 21,-42 -4,-19 -16,-24 -35,-14 19,-57 24,-100 14,-128 47,558 -5,1235 -156,2030 38,75 28,123 -28,142 0,28 -38,227 -114,596l-14 0c-10,-10 -19,-14 -29,-14 -9,9 -4,47 15,113 -19,-9 -33,5 -43,43 -9,38 -24,47 -43,28 10,10 0,66 -28,170 -28,-104 -28,-291 0,-560 28,-270 50,-464 64,-582 14,-119 45,-310 92,-575 48,-265 76,-445 85,-540 10,-9 15,-4 15,15l14 14zm-199 908c-9,-9 -14,-61 -14,-156 9,0 14,12 14,36 0,23 -2,45 -7,64 -5,18 -2,37 7,56zm-71 412c-19,-19 -14,-76 14,-170 10,19 10,49 0,92 -9,42 -14,68 -14,78zm-142 766c0,-18 2,-42 7,-71 5,-28 12,-52 22,-70 9,18 9,47 0,85 -10,38 -19,56 -29,56zm1547 -7523c0,29 -14,74 -42,135 -29,62 -43,111 -43,149 57,-170 85,-265 85,-284zm-298 1051c-57,94 -104,241 -142,440 57,-190 104,-336 142,-440zm-397 1377c0,9 -5,33 -14,71 -10,37 -10,61 0,71 0,-10 7,-34 21,-71 14,-38 12,-62 -7,-71zm-57 241c-19,47 -24,85 -14,113 0,-9 7,-30 21,-63 14,-34 12,-50 -7,-50zm-341 2441c10,19 10,48 0,86 -9,37 -14,61 -14,71 0,-19 5,-41 14,-64 10,-24 15,-41 15,-50 0,-10 -5,-24 -15,-43z"/>
   <path class="fil0" d="M11209 13382c76,-436 114,-658 114,-668 -10,19 -5,48 14,86l-43 0c0,9 5,18 14,28 29,-19 45,-43 50,-71 5,-28 5,-57 0,-85 -5,-29 -2,-66 7,-114l29 0c47,-293 137,-683 269,-1171 133,-487 209,-778 227,-873 67,-142 149,-350 249,-624 99,-275 168,-459 206,-554 113,-255 359,-762 738,-1519 19,-9 33,-21 42,-35 10,-14 19,-36 29,-64 9,-29 19,-52 28,-71 10,-28 26,-59 50,-92 23,-33 42,-62 57,-86 14,-23 30,-52 49,-85 19,-33 31,-66 36,-99 4,-33 2,-69 -7,-107 -10,10 -15,5 -15,-14 -113,-38 -175,-57 -184,-57 -19,48 -66,114 -142,199 -76,85 -114,152 -114,199 -18,-10 -30,-7 -35,7 -5,14 -17,21 -36,21 -18,38 -59,97 -120,178 -62,80 -107,144 -135,191 -76,67 -166,194 -270,384l-14 0 0 14c-19,9 -14,19 14,28 10,-19 24,-42 43,-71l42 -57c0,10 -7,24 -21,43 -14,19 -16,33 -7,43 104,-152 170,-242 199,-270l-14 14c28,-28 78,-85 149,-170 71,-85 130,-147 177,-185l-92 185 -92 184c9,-28 23,-42 42,-42 -9,9 -16,23 -21,42 -5,19 -12,36 -21,50 -10,14 -19,21 -29,21 0,-9 5,-19 14,-28 10,-10 10,-19 0,-28 -38,37 -42,66 -14,85 -549,1116 -960,2276 -1235,3477 19,0 29,5 29,15l0 21c0,5 -5,12 -15,21 0,-19 -4,-33 -14,-42 -9,37 -21,89 -35,156 -14,66 -26,125 -36,177 -9,52 -14,102 -14,149l14 -14c-19,9 -31,28 -35,57 -5,28 -12,42 -22,42 19,48 5,119 -42,213l28 29c10,9 14,19 14,28l-14 -14 -28 0c0,47 -10,128 -29,241 -18,114 -18,194 0,241 -9,19 -18,29 -28,29 -9,0 -14,5 -14,14 0,28 -10,104 -28,227 -19,123 -24,208 -15,256 -9,38 -23,109 -42,213 -19,104 -38,184 -57,241 28,76 76,128 142,156 28,-47 156,-350 383,-908 180,-492 341,-918 483,-1278 57,-113 151,-326 284,-639 340,-577 582,-937 724,-1078 0,132 -31,359 -93,681 -61,322 -87,568 -78,738l-28 0 0 355c0,208 14,374 42,497 29,123 86,227 171,312 19,0 75,-10 170,-28 0,-10 10,-34 29,-71 -67,28 -124,42 -171,42 -85,-416 -85,-899 0,-1448 10,-94 38,-243 85,-447 48,-203 76,-367 86,-490l0 -184c-19,-76 -76,-128 -171,-156 -94,-29 -151,-10 -170,57 -10,-10 -19,-8 -29,7 -9,14 -18,21 -28,21 -9,9 -9,28 0,57l0 14c-9,0 -14,-7 -14,-21 0,-15 -5,-22 -14,-22 -19,48 -43,76 -71,86l0 70 0 -28c0,-9 -5,-14 -14,-14 -10,0 -15,14 -15,42l0 29 -14 -14 -14 -15c0,10 -10,19 -28,29l14 42c9,29 9,43 0,43 0,-28 -5,-43 -14,-43 0,67 -15,105 -43,114 -10,-9 -7,-24 7,-43 14,-18 12,-28 -7,-28 -10,19 -14,38 -14,57 0,19 -5,33 -14,42 0,-28 -5,-42 -15,-42 -19,19 -30,47 -35,85 -5,38 -10,64 -14,78 -5,14 -22,17 -50,7 0,10 2,21 7,36 5,14 2,21 -7,21l-14 -14c0,-10 -5,-14 -14,-14 9,9 14,28 14,56l-14 29c-38,-10 -67,14 -86,71 10,0 17,-7 22,-22 4,-14 12,-16 21,-7 0,38 -5,57 -14,57 0,-19 -5,-28 -14,-28l0 56c0,10 -5,24 -15,43l-56 0c9,19 9,38 0,57 -10,-10 -10,-19 0,-29 9,-9 4,-14 -15,-14 0,38 -9,57 -28,57 0,9 5,17 14,21 10,5 10,12 0,22 -19,-10 -33,0 -42,28l42 0c-47,76 -71,132 -71,170l-28 -28c-38,95 -71,151 -99,170 9,10 9,24 0,43l0 57 -29 -15c10,10 5,19 -14,29l0 28c9,0 14,-4 14,-14 0,-9 5,-9 14,0 0,57 -19,66 -56,28 0,10 4,17 14,22 9,4 14,12 14,21 -38,28 -76,66 -114,114 19,9 24,23 15,42 -10,19 -5,38 14,57 -66,28 -85,71 -57,128l-28 0c0,38 -5,61 -15,71 0,-10 -9,-33 -28,-71 10,47 5,94 -14,142 -10,37 -24,52 -43,42 0,48 -4,71 -14,71 0,-9 -5,-14 -14,-14 0,19 -5,28 -14,28 9,29 -5,90 -43,185 0,-28 -5,-38 -14,-28 19,141 -10,212 -85,212l0 71c0,19 -5,34 -14,43 0,-9 -5,-19 -15,-28 0,-19 -4,-24 -14,-15 19,29 21,67 7,114 -14,47 -21,80 -21,99 -10,0 -19,7 -28,22 -10,14 -24,21 -43,21l0 85c-19,0 -24,-7 -14,-21 9,-14 9,-21 0,-21l0 70c0,38 -5,71 -14,100 -10,28 -29,47 -57,57 0,9 2,23 7,42 5,19 2,29 -7,29l0 -15c0,-19 -10,-23 -29,-14 0,29 10,43 29,43 -47,0 -71,66 -71,199 0,-19 -10,-38 -29,-57l0 28 0 29c-18,9 -33,14 -42,14 -10,9 -12,23 -7,42 4,19 -3,29 -22,29 10,-29 10,-57 0,-85 29,0 43,-5 43,-15 -9,-56 -2,-146 21,-269 24,-123 31,-204 22,-242 -38,57 -48,128 -29,213 -19,10 -28,26 -28,50 0,24 -5,40 -14,50 9,0 19,9 28,28l0 28c-28,10 -43,38 -43,86 0,47 -9,71 -28,71zm1547 -5394c-9,-10 -7,-26 7,-50 15,-24 22,-40 22,-50 19,10 14,29 -14,57 -10,19 -15,33 -15,43zm-142 -128c-9,28 -40,83 -92,163 -52,80 -87,140 -106,177 9,-56 40,-120 92,-191 52,-71 87,-121 106,-149zm-1320 4840c10,-19 10,-38 0,-57l29 15 0 14 -29 28zm1051 -4386c-10,0 -22,17 -36,50 -14,33 -31,45 -50,35 19,-47 24,-71 15,-71 -275,492 -417,753 -426,781 255,-454 388,-691 397,-710 19,0 24,10 14,29 -9,19 -9,28 0,28 10,-9 24,-33 43,-71 19,-38 33,-62 43,-71zm156 156c9,-9 21,-26 35,-50 14,-23 22,-44 22,-63 -57,28 -76,66 -57,113z"/>
   <path class="fil0" d="M15283 11607l-14 0 -14 -14c0,28 -10,85 -29,170 -19,85 -28,142 -28,171l0 -15c0,19 -10,79 -29,178 -19,99 -19,158 0,177 -85,265 -113,516 -85,753 10,104 40,184 92,241 53,57 121,80 206,71l-14 -28c19,18 33,28 43,28 19,-38 66,-99 142,-185 75,-85 127,-160 156,-227 -19,10 -66,67 -142,171 -76,104 -156,151 -241,142 -133,-19 -157,-275 -71,-767 113,-710 335,-1509 667,-2399 104,-255 165,-430 184,-525 10,-57 -7,-102 -49,-135 -43,-33 -93,-45 -149,-35 -284,369 -455,619 -512,752 -85,47 -127,118 -127,213 9,19 4,28 -14,28l0 -14c-10,-9 -19,-14 -29,-14 -9,19 -19,47 -28,85 -10,38 -14,62 -14,71 -10,-9 -12,-19 -8,-28 5,-10 3,-15 -7,-15 -19,19 -61,109 -127,270 0,-38 -5,-57 -15,-57 0,19 -4,36 -14,50 -9,14 -14,26 -14,36 0,9 5,18 14,28 -28,-10 -47,5 -57,42 -9,38 -23,57 -42,57l0 71c-57,66 -81,119 -71,156 -10,0 -14,-2 -14,-7 0,-4 -5,-7 -14,-7 -19,19 -27,40 -22,64 5,24 3,40 -7,50l-28 -29c-10,19 -14,45 -14,78 0,34 -10,60 -29,78 0,-9 3,-21 7,-35 5,-14 3,-21 -7,-21 0,9 -5,38 -14,85 -10,28 -14,28 -14,0 -19,0 -29,9 -29,28l15 29c-10,-10 -22,-5 -36,14 -14,19 -12,33 7,42l-28 0c-10,10 -5,24 14,43l0 28 0 -14c-9,-9 -19,-14 -28,-14 -48,104 -71,170 -71,199 0,-10 -5,-14 -15,-14l-14 0c0,47 -4,71 -14,71 0,-19 -5,-29 -14,-29l-85 256c0,-29 -10,-43 -29,-43 -217,445 -340,686 -369,724 -19,38 -42,71 -71,99 -28,19 -38,15 -28,-14 -19,38 -33,57 -43,57 38,-331 133,-762 284,-1292 152,-530 246,-875 284,-1036 -9,-38 -80,-57 -213,-57 0,29 -19,64 -57,107 -37,42 -56,78 -56,106 -67,38 -114,118 -142,241 38,-18 78,-63 120,-134 43,-71 78,-112 107,-121 -38,161 -100,388 -185,681 -85,294 -154,573 -206,838 -52,265 -82,530 -92,795 10,9 21,28 36,56 14,29 26,48 35,57 10,0 26,7 50,22 23,14 45,16 64,7 38,-19 71,-48 99,-86 28,-37 57,-80 85,-127 29,-48 52,-85 71,-114 360,-719 611,-1202 752,-1448 256,-520 559,-1036 909,-1547 -208,625 -383,1216 -525,1774 -10,19 -5,38 14,57z"/>
   <path class="fil0" d="M16745 10046c-9,-10 -7,-22 7,-36 14,-14 21,-26 21,-35 -9,0 -23,14 -42,42l-14 43c9,76 -34,208 -128,397 -19,86 -71,246 -156,483 -85,237 -138,416 -156,539 -105,171 -157,365 -157,582 -9,0 -19,-4 -28,-14 -19,95 -161,847 -426,2257 0,29 10,47 29,57 19,9 42,14 71,14 28,0 47,5 56,14 67,-179 109,-364 128,-553 47,-67 62,-133 43,-199 208,-681 373,-1188 496,-1519 38,-76 105,-236 199,-482 95,-246 182,-457 263,-632 80,-175 163,-334 248,-476 123,-217 237,-392 341,-525l113 -113c29,9 41,47 36,113 -5,66 -17,109 -36,128 19,9 26,26 22,50 -5,23 -3,40 7,49l-29 0c-9,19 -9,29 0,29l15 0c0,9 -15,99 -43,269l-28 0 28 29c-19,57 -33,85 -43,85 -28,284 -42,440 -42,468l-43 0c19,67 17,157 -7,270 -23,114 -31,199 -21,256 -38,75 -43,179 -14,312l-14 -14c9,47 9,97 0,149 -10,52 -5,92 14,120l-29 0c29,19 43,38 43,57 -19,10 -24,43 -14,99 0,19 -5,19 -14,0 9,114 18,190 28,228 9,37 26,101 50,191 23,90 61,147 113,171 52,23 116,26 192,7 -76,0 -128,-36 -156,-107 -29,-71 -45,-172 -50,-305 -5,-132 -12,-213 -21,-241 9,-303 56,-724 142,-1264 85,-539 137,-918 156,-1135 -38,-152 -137,-213 -298,-185 -19,67 -48,81 -86,43 -18,47 -59,106 -120,177 -62,71 -102,130 -121,178 10,0 17,7 21,21 5,14 3,26 -7,36 -19,-19 -33,-29 -42,-29 -57,123 -76,199 -57,227 -19,10 -33,10 -43,0 0,-9 -4,-14 -14,-14 0,10 -14,38 -42,85 -29,48 -48,90 -57,128 0,-19 -5,-28 -14,-28 -29,66 -48,99 -57,99l28 28 0 15 -28 -29c0,10 -24,52 -71,128 -47,76 -66,137 -57,184 -113,142 -170,294 -170,455l-29 -29c10,0 15,-9 15,-28 0,-19 -5,-29 -15,-29 0,19 -16,62 -49,128 -33,66 -40,114 -22,142l-42 0 0 71 -14 -14c0,-10 -5,-10 -15,0 -28,85 -37,137 -28,156 -9,0 -14,-2 -14,-7 0,-5 -5,-7 -14,-7 -19,57 -24,99 -14,128l-29 0c10,28 0,71 -28,127 -10,38 -10,62 0,71 -19,0 -29,10 -29,29l0 -43c10,-19 10,-28 0,-28 -9,0 -14,7 -14,21 0,14 -5,21 -14,21l0 -42c0,-19 5,-33 14,-43 123,-492 317,-1064 582,-1717 19,-38 40,-83 64,-135 24,-52 50,-111 78,-178 28,-66 52,-118 71,-156 19,-47 10,-83 -28,-106 -38,-24 -81,-36 -128,-36l-99 0 0 114 -43 0c0,94 -24,165 -71,213zm-412 1405c-28,0 -42,-19 -42,-57 28,29 42,48 42,57zm-28 838c0,-10 -10,-15 -28,-15l0 -71c18,0 30,15 35,43 5,28 12,43 21,43l-14 0 -14 0zm-71 212l14 -14 0 -28 -28 28 0 -71c75,38 80,67 14,85z"/>
   <path class="fil0" d="M18221 11891c-19,57 -19,95 0,114l0 -114zm-28 170c0,19 -7,48 -21,86 -15,37 -12,56 7,56 0,-19 4,-42 14,-71 9,-37 9,-61 0,-71zm3293 -6387c-38,19 -43,52 -14,99 -10,0 -24,5 -43,14 -38,38 -42,62 -14,71l0 -28 28 -28c-75,151 -165,378 -269,681 -104,303 -171,483 -199,539 0,48 -17,114 -50,199 -33,85 -49,147 -49,185l-29 0c0,9 3,19 7,28 5,9 7,19 7,28 -9,0 -19,-4 -28,-14 9,38 5,76 -14,114 -19,38 -29,71 -29,99 -9,-9 -18,-14 -28,-14 0,28 -14,64 -43,106 -28,43 -37,83 -28,121l-28 0c-10,19 -10,31 0,35 9,5 14,12 14,22l-28 28 0 -28c0,9 -5,23 -15,42 -9,19 -9,38 0,57l-14 0c-19,0 -28,5 -28,14 0,10 9,24 28,43 19,28 19,47 0,57l-14 -29 -28 -28c0,47 -10,66 -29,57 0,19 7,35 21,49 15,15 22,26 22,36 -19,0 -31,-7 -36,-21 -4,-15 -12,-22 -21,-22l0 100c-10,0 -19,-5 -28,-15 -19,38 -29,79 -29,121l0 78c0,-28 -5,-42 -14,-42l-14 -15c-10,10 -14,29 -14,57 0,29 -5,47 -15,57l-14 -28c-9,85 -38,170 -85,255 -9,10 -14,24 -14,43l14 42c-9,-28 -19,-42 -28,-42 -10,28 -12,61 -7,99 4,38 2,62 -8,71l0 -28c0,-19 -4,-34 -14,-43l-42 128c0,-19 -5,-29 -15,-29l0 128 -14 -14c0,-10 -4,-14 -14,-14 0,28 -9,61 -28,99 -19,38 -29,66 -29,85l-14 0 -14 29c9,9 14,21 14,35l0 50c-57,19 -85,85 -85,199 -19,0 -33,4 -43,14l29 28c-10,10 -19,14 -29,14l-14 0c19,85 0,128 -57,128 0,10 5,24 15,43 9,19 4,33 -15,42 0,-19 -4,-28 -14,-28 10,19 12,38 7,57 -4,19 -21,23 -49,14 9,9 14,26 14,50l0 49 -29 0c0,10 -2,21 -7,36 -4,14 -7,30 -7,49 -19,0 -28,5 -28,15l0 14c9,9 9,14 0,14 0,-10 -5,-14 -14,-14 9,19 9,45 0,78 -10,33 -5,49 14,49l-29 0 -28 0 0 43 -28 0c19,0 28,14 28,43l-43 0c19,0 29,14 29,42l0 43c-10,0 -24,-10 -43,-29 -9,0 -12,12 -7,36 5,24 7,40 7,50 -9,-10 -19,-15 -28,-15 9,29 -5,62 -43,100 10,38 -7,90 -49,156 -43,66 -60,128 -50,184 -10,0 -14,-7 -14,-21 0,-14 -5,-21 -14,-21l0 99c-19,-9 -36,5 -50,43 -14,38 -26,57 -36,57l0 -128c0,-66 -2,-116 -7,-149 -4,-33 -14,-74 -28,-121 -14,-47 -38,-87 -71,-121 -33,-33 -73,-54 -121,-63 -189,-19 -345,33 -468,156 9,9 5,33 -14,71 -19,38 -38,61 -57,71 0,-10 7,-24 21,-43 14,-19 24,-33 29,-42 4,-10 2,-19 -8,-29 -9,10 -21,29 -35,57 -14,28 -26,47 -36,57l29 28 -14 14 -15 14c0,-18 -4,-28 -14,-28 -9,10 -14,43 -14,99l-14 -14c0,-9 -5,-9 -14,0 0,10 -7,22 -22,36 -14,14 -16,26 -7,35l29 -14c-10,0 -14,5 -14,14l-15 29c-19,0 -38,28 -56,85 9,0 18,-10 28,-29l14 -42c-9,38 -28,90 -57,156 -28,66 -42,104 -42,114 28,-38 71,-124 128,-256 56,-132 113,-222 170,-270 -294,492 -473,1084 -540,1775 -9,-29 -9,-76 0,-142 10,-67 10,-109 0,-128 -9,28 -14,87 -14,177 0,90 -4,149 -14,178 10,0 19,28 28,85 -9,0 -14,-12 -14,-36 0,-23 -4,-35 -14,-35 -19,95 0,182 57,263 57,80 137,111 241,92 199,-76 364,-232 497,-469 57,-28 90,-75 99,-142 10,-9 81,-146 213,-411 284,-615 582,-1368 894,-2257 19,-28 43,-83 71,-163 29,-81 53,-135 71,-164 67,-246 190,-567 370,-965 -57,256 -119,554 -185,894 0,10 5,15 14,15 19,9 24,23 14,42 -9,0 -14,-2 -14,-7 0,-5 -5,-7 -14,-7 0,38 5,57 14,57l29 -29c-29,29 -48,43 -57,43 -114,927 -171,1472 -171,1632 -18,19 -28,60 -28,121 0,62 -5,102 -14,121 0,85 -12,250 -36,497 -23,246 -26,435 -7,567 -9,85 -28,450 -57,1093 0,10 10,14 29,14l14 15c-9,9 -19,12 -28,7 -10,-5 -19,-7 -29,-7 10,132 5,340 -14,624 19,0 28,5 28,14 -47,123 -42,213 15,270 -19,19 -33,29 -43,29 10,47 14,127 14,241 0,113 10,199 29,255l-29 0c0,10 3,24 7,43 5,19 12,33 22,43 -29,85 -15,222 42,411 -19,19 -23,29 -14,29l14 0c0,28 7,73 22,134 14,62 16,102 7,121l28 0c-9,47 38,151 142,312 227,123 374,24 440,-298 -9,0 -19,5 -28,14 0,-28 -10,-33 -29,-14l14 -14c10,-19 10,-33 0,-43 -85,171 -156,275 -212,313 -38,-19 -74,-59 -107,-121 -33,-61 -54,-97 -64,-106 -38,-190 -76,-445 -113,-767 0,-66 -5,-220 -15,-461 -9,-242 -4,-424 15,-547 -10,-227 -5,-570 14,-1029 19,-459 28,-764 28,-915 10,0 14,-5 14,-15 0,-9 5,-14 15,-14 9,-19 9,-38 0,-57 -10,-18 -15,-33 -15,-42 10,0 15,5 15,14 0,-19 4,-73 14,-163 9,-90 9,-144 0,-163 132,-1183 208,-1817 227,-1902l-14 0c9,-19 16,-53 21,-100 5,-47 17,-85 36,-113 -10,-19 -3,-67 21,-142 23,-76 26,-128 7,-156l14 14 14 0 14 -100c10,-66 5,-99 -14,-99 19,0 29,5 29,14 0,-76 21,-189 64,-340 42,-152 63,-275 63,-370 10,0 15,5 15,15 208,-852 440,-1552 695,-2101l0 28c19,-19 29,-45 29,-78 0,-33 4,-54 14,-64 0,19 4,33 14,43 9,-19 19,-43 28,-71 10,-28 15,-52 15,-71l56 -71 29 -14c9,-10 9,-12 0,-7 -10,4 -15,2 -15,-7 10,-29 27,-52 50,-71 24,-19 36,-34 36,-43 -10,0 -15,5 -15,14 0,10 -9,14 -28,14l71 -142c0,10 -5,24 -14,43 -10,10 -5,19 14,28 180,-378 308,-610 383,-695 0,-76 -99,-114 -298,-114 -28,38 -73,100 -135,185 -61,85 -111,158 -149,220 -38,61 -71,130 -99,206l28 -14 15 0c0,9 -10,23 -29,42 -9,10 -14,24 -14,43 -38,19 -57,33 -57,42 10,10 17,10 21,0 5,-9 12,-9 22,0 -19,10 -31,29 -36,57 -4,28 -16,47 -35,57 0,-10 5,-29 14,-57l0 -14zm-2683 6742c-132,208 -288,365 -468,469 -85,-237 -76,-559 28,-966 47,-208 147,-473 298,-794 171,-322 317,-507 440,-554l14 0c57,57 90,132 100,227 19,360 0,658 -57,894 -9,29 -26,67 -50,114 -23,47 -40,85 -49,113 -48,114 -133,280 -256,497zm1547 -1433c-19,-29 -37,-81 -56,-157 9,10 28,62 56,157zm-71 468c-18,0 -23,-24 -14,-71 10,10 10,24 0,43 -9,19 -4,28 14,28zm-71 1107c-18,-9 -23,-28 -14,-57 10,-28 10,-47 0,-56 19,0 26,16 22,49 -5,33 -8,55 -8,64zm-2029 227c-10,0 -17,-9 -22,-28 -4,-19 -2,-33 7,-43 10,10 15,33 15,71zm2001 298l0 -85 14 29c0,9 5,14 14,14 0,9 -7,14 -21,14 -14,0 -16,9 -7,28zm-1945 -1206c19,-66 71,-241 157,-525 -19,9 -31,26 -36,49 -5,24 -12,36 -21,36 0,47 -19,121 -57,220 -38,99 -52,173 -43,220z"/>
   <path class="fil0" d="M22167 10557c-56,-38 -137,-66 -241,-85 -9,28 -43,59 -99,92 -57,33 -90,54 -100,64 -265,198 -473,515 -624,951 -67,47 -133,59 -199,35 -66,-23 -114,-68 -142,-135 0,190 99,294 298,313 -38,312 5,511 128,596 199,151 464,113 795,-114 113,-75 199,-142 255,-198 48,-38 95,-81 142,-128 48,-47 102,-104 163,-170 62,-67 107,-114 135,-142 86,-76 199,-190 341,-341 142,-152 251,-260 326,-327 0,-9 5,-21 15,-35 9,-14 14,-26 14,-36 57,-18 111,-63 163,-134 52,-71 97,-116 135,-135 -47,9 -111,42 -192,99 -80,57 -130,90 -149,99 -38,67 -123,150 -255,249 -133,99 -218,192 -256,277 -38,-19 -56,-19 -56,0 -86,113 -228,253 -426,418 -199,166 -332,287 -398,362 -19,0 -106,41 -262,121 -157,80 -301,106 -433,78 -67,-104 -76,-298 -29,-582 10,0 67,-42 171,-128 104,-85 175,-144 213,-177 37,-33 97,-85 177,-156 80,-71 144,-135 192,-192 47,-57 85,-118 113,-184 85,-171 114,-289 85,-355zm-184 99c9,47 -14,104 -71,170 -57,67 -90,109 -100,128l-28 0c-47,57 -118,130 -213,220 -94,90 -156,154 -184,192 75,-227 274,-464 596,-710z"/>
   <path class="fil0" d="M23629 11238c10,19 0,73 -28,163 -28,90 -43,149 -43,178l-14 -29c-19,161 -42,284 -71,369 0,-189 43,-487 128,-894 19,-85 123,-525 312,-1320 0,-19 17,-68 50,-149 33,-80 45,-130 35,-149 0,-28 -11,-52 -35,-71 -24,-19 -45,-28 -64,-28 -19,0 -50,2 -92,7 -43,4 -69,7 -78,7 -388,1542 -592,2938 -611,4187 67,95 133,137 199,128 28,-95 118,-582 270,-1462 180,-842 374,-1457 582,-1845 19,-48 85,-138 198,-270 48,85 95,234 142,447 48,213 109,388 185,525 76,138 185,206 326,206 0,-9 17,-14 50,-14 33,0 55,-10 64,-28 -9,0 -40,2 -92,7 -52,4 -83,2 -93,-7 -94,-152 -160,-317 -198,-497 -10,-38 -22,-104 -36,-199 -14,-95 -26,-163 -35,-206 -10,-42 -29,-97 -57,-163 -28,-66 -57,-114 -85,-142 -29,-28 -71,-52 -128,-71 -57,-19 -118,-24 -184,-14 -38,38 -100,132 -185,284 0,-29 -5,-43 -14,-43 -10,76 -31,144 -64,206 -33,61 -54,121 -64,177 0,-9 -5,-19 -14,-28 0,38 -10,80 -29,128 -18,47 -28,80 -28,99 -9,0 -12,-9 -7,-28 5,-19 2,-29 -7,-29 -28,133 -66,251 -114,355l29 0c-19,19 -36,57 -50,114 -14,57 -31,90 -50,99z"/>
  </g>
 </g>
</svg>
