<svg width="40" height="32" viewBox="0 0 40 32" fill="none" xmlns="http://www.w3.org/2000/svg">
<path d="M39.3772 3.78837C37.9269 4.43102 36.3713 4.86391 34.7356 5.06111C36.4051 4.06099 37.6873 2.47634 38.2891 0.592374C36.7288 1.51708 34.9972 2.18959 33.158 2.55098C31.6857 0.979696 29.5857 0 27.2626 0C22.8001 0 19.183 3.6171 19.183 8.07797C19.183 8.71042 19.2553 9.32636 19.3944 9.91873C12.6803 9.58169 6.72667 6.36527 2.74111 1.47779C2.04581 2.67354 1.64828 4.06177 1.64828 5.54114C1.64828 8.34352 3.07186 10.8152 5.24181 12.2662C3.91564 12.2238 2.67197 11.8601 1.58307 11.2543C1.58307 11.2889 1.58307 11.3219 1.58307 11.3572C1.58307 15.2729 4.36739 18.5333 8.06069 19.2797C7.38504 19.4651 6.67089 19.5625 5.93396 19.5625C5.41229 19.5625 4.90555 19.5122 4.41138 19.4164C5.44293 22.6226 8.42444 24.963 11.9591 25.0282C9.19595 27.1942 5.71241 28.4843 1.9264 28.4843C1.27196 28.4843 0.630871 28.4465 0 28.3711C3.5731 30.6644 7.82186 32 12.3833 32C27.2437 32 35.3712 19.6906 35.3712 9.01839C35.3712 8.66642 35.3626 8.31602 35.3476 7.97191C36.9252 6.83273 38.2954 5.40836 39.3772 3.78837Z" fill="#FA8CDA"/>
</svg>
