<svg width="32" height="32" viewBox="0 0 32 32" fill="none" xmlns="http://www.w3.org/2000/svg">
<rect width="32" height="32" rx="16" fill="#FA8CDA"/>
<path d="M25.6886 9.89418C24.9634 10.2155 24.1857 10.432 23.3678 10.5306C24.2026 10.0305 24.8436 9.23817 25.1445 8.29619C24.3644 8.75854 23.4986 9.09479 22.579 9.27549C21.8429 8.48985 20.7929 8 19.6313 8C17.4001 8 15.5915 9.80855 15.5915 12.039C15.5915 12.3552 15.6277 12.6632 15.6972 12.9594C12.3401 12.7908 9.36334 11.1826 7.37055 8.7389C7.02291 9.33677 6.82414 10.0309 6.82414 10.7706C6.82414 12.1718 7.53593 13.4076 8.6209 14.1331C7.95782 14.1119 7.33599 13.93 6.79153 13.6272C6.79153 13.6444 6.79153 13.6609 6.79153 13.6786C6.79153 15.6364 8.18369 17.2667 10.0303 17.6398C9.69252 17.7325 9.33545 17.7812 8.96698 17.7812C8.70615 17.7812 8.45278 17.7561 8.20569 17.7082C8.72147 19.3113 10.2122 20.4815 11.9795 20.5141C10.598 21.5971 8.8562 22.2421 6.9632 22.2421C6.63598 22.2421 6.31544 22.2233 6 22.1856C7.78655 23.3322 9.91093 24 12.1916 24C19.6219 24 23.6856 17.8453 23.6856 12.5092C23.6856 12.3332 23.6813 12.158 23.6738 11.986C24.4626 11.4164 25.1477 10.7042 25.6886 9.89418Z" fill="black"/>
</svg>
