<svg width="40" height="33" viewBox="0 0 40 33" fill="none" xmlns="http://www.w3.org/2000/svg">
<path d="M39.6886 3.92802C38.2383 4.57067 36.6827 5.00356 35.047 5.20076C36.7165 4.20063 37.9987 2.61599 38.6005 0.732023C37.0402 1.65672 35.3086 2.32923 33.4694 2.69063C31.9972 1.11934 29.8971 0.139648 27.574 0.139648C23.1115 0.139648 19.4944 3.75675 19.4944 8.21762C19.4944 8.85007 19.5667 9.46601 19.7058 10.0584C12.9917 9.72134 7.03807 6.50492 3.05251 1.61744C2.35721 2.81319 1.95968 4.20142 1.95968 5.68078C1.95968 8.48317 3.38326 10.9548 5.55321 12.4059C4.22704 12.3635 2.98337 11.9997 1.89447 11.394C1.89447 11.4285 1.89447 11.4615 1.89447 11.4969C1.89447 15.4125 4.67879 18.673 8.37209 19.4193C7.69644 19.6047 6.98229 19.7021 6.24536 19.7021C5.72369 19.7021 5.21695 19.6519 4.72278 19.556C5.75433 22.7622 8.73585 25.1026 12.2705 25.1679C9.50735 27.3339 6.02381 28.6239 2.2378 28.6239C1.58336 28.6239 0.942272 28.5862 0.311401 28.5108C3.8845 30.8041 8.13326 32.1396 12.6947 32.1396C27.5551 32.1396 35.6826 19.8302 35.6826 9.15804C35.6826 8.80607 35.674 8.45567 35.659 8.11156C37.2366 6.97238 38.6068 5.54801 39.6886 3.92802Z" fill="#FA8CDA"/>
</svg>
